<svg version="1.1" xmlns="http://www.w3.org/2000/svg" xmlns:xlink="http://www.w3.org/1999/xlink" width="476.92904" height="381.26696" viewBox="0,0,476.92904,381.26696"><g transform="translate(-1.53548,10.63348)"><g data-paper-data="{&quot;isPaintingLayer&quot;:true}" fill-rule="nonzero" stroke="none" stroke-linecap="butt" stroke-linejoin="miter" stroke-miterlimit="10" stroke-dasharray="" stroke-dashoffset="0" style="mix-blend-mode: normal"><g><path d="M398.45661,356.20671c-65.61299,7.77152 -200.23067,18.86738 -368.96055,12.56625c2.13594,-3.4194 15.08616,-24.10823 33.9998,-53.95635c-23.93687,-3.31765 -45.39262,-7.09353 -61.96038,-11.41332c-0.00811,-2.75258 268.73368,-313.94227 279.1955,-314.03664c304.69901,304.72704 183.33859,359.06854 117.72562,366.84007z" fill-opacity="0.79786" fill="#ffffff" stroke-width="0.25801"/><path d="M323.69321,332.99004c-74.92443,-1.01236 -247.0869,-10.01319 -322.1575,-29.58668c-0.00811,-2.7526 268.73359,-313.94247 279.19542,-314.03684c248.23055,311.73934 117.88653,344.63589 42.96209,343.62352z" fill-opacity="0.5" fill="#ff0000" stroke-width="0.2576"/><path d="M398.45696,356.2069c-65.61305,7.77154 -200.2306,18.86723 -368.96065,12.56608c8.12041,-12.99982 167.22186,-267.51587 251.23481,-379.40646c304.69932,304.72734 183.33888,359.06884 117.72584,366.84037z" fill-opacity="0.5" fill="#0000ff" stroke-width="0.2576"/></g></g></g></svg>