<?xml version="1.0" encoding="utf-8"?>
<svg xmlns="http://www.w3.org/2000/svg" version="1.1" width="1080" height="1080" viewBox="0 0 1080 1080">
  <desc>Created with Fabric.js 5.2.4</desc>
  <rect y="-14.512" width="1219.93" height="629.345" fill="transparent" style="" x="-38.095"/>
  <g transform="matrix(0.99262, 0, 0, 1.013437, 497.919575, 532.743763)" id="0817c6cb-ddd2-4238-99f2-9cfc58499e45" style="">
    <rect style="stroke: none; stroke-width: 1; stroke-dasharray: none; stroke-linecap: butt; stroke-dashoffset: 0; stroke-linejoin: miter; stroke-miterlimit: 4; fill: rgb(255,255,255); fill-rule: nonzero; opacity: 1; visibility: hidden;" vector-effect="non-scaling-stroke" x="-540" y="-540" rx="0" ry="0" width="1080" height="1080"/>
  </g>
  <g transform="matrix(0.99262, 0, 0, 1.013437, 497.919575, 532.743763)" id="ab9499ac-1441-4b41-90fa-a7d17b8aa52f" style=""/>
  <g transform="matrix(0.99262, 0, 0, 1.013437, -38.095016, -14.512373)" style="">
    <g style=""/>
  </g>
  <g transform="matrix(0.99262, 0, 0, 1.013437, -38.095016, -14.512373)" style="">
    <g style=""/>
  </g>
  <g transform="matrix(3.226014, 0, 0, 3.293672, 497.919575, 532.743763)" style="">
    <g style="" vector-effect="non-scaling-stroke">
      <g transform="matrix(1 0 0 1 0 84.1)" id="_227268128">
        <path style="stroke: none; stroke-width: 1; stroke-dasharray: none; stroke-linecap: butt; stroke-dashoffset: 0; stroke-linejoin: miter; stroke-miterlimit: 4; fill: rgb(78,120,150); fill-rule: nonzero; opacity: 1;" vector-effect="non-scaling-stroke" transform=" translate(-344.9, -225.6)" d="M 304.312 226.39 C 304.312 226.39 292.373 233.658 312.617 235.734 C 337.014 238.848 349.991 238.33 376.984 233.139 C 376.984 233.139 384.251 237.81 394.113 241.444 C 333.381 267.398 256.556 239.886 304.312 226.39 L 304.312 226.39 Z M 296.526 192.65 C 296.526 192.65 283.549 202.512 303.793 204.589 C 330.266 207.185 351.03 207.703 386.846 200.436 C 386.846 200.436 391.518 205.627 399.304 208.223 C 326.114 230.024 244.098 210.299 296.526 192.65 L 296.526 192.65 Z M 439.793 251.826 C 439.793 251.826 448.617 259.093 429.93 264.802 C 395.151 275.184 284.067 278.299 252.922 264.802 C 242.022 260.131 262.785 253.383 269.533 252.345 C 276.281 250.787 279.914 250.787 279.914 250.787 C 267.976 242.482 200.495 267.917 245.655 275.184 C 369.716 295.428 471.976 266.36 439.792 251.825 L 439.793 251.826 Z M 310.022 157.352 C 310.022 157.352 253.442 170.848 289.778 175.52 C 305.35 177.596 335.976 177.078 364.526 175.001 C 387.884 172.925 411.243 168.772 411.243 168.772 C 411.243 168.772 402.938 172.406 397.228 176.04 C 339.61 191.093 229.045 184.345 260.709 168.772 C 287.701 155.795 310.021 157.352 310.021 157.352 L 310.022 157.352 Z M 411.244 213.932 C 469.381 183.825 442.389 154.757 423.702 158.391 C 419.03 159.429 416.953 160.467 416.953 160.467 C 416.953 160.467 418.511 157.352 422.144 156.314 C 458.999 143.337 488.068 195.245 410.206 215.49 C 410.206 215.49 410.724 214.971 411.244 213.932 L 411.244 213.932 Z M 315.732 295.948 C 371.793 299.581 457.442 293.871 459.518 267.398 C 459.518 267.398 455.366 277.78 413.32 285.566 C 365.564 294.39 306.389 293.352 271.61 287.642 C 271.61 287.642 278.877 293.871 315.732 295.948 L 315.732 295.948 Z" stroke-linecap="round"/>
      </g>
      <g transform="matrix(1 0 0 1 14.69 -64.6)" id="_230367536">
        <path style="stroke: none; stroke-width: 1; stroke-dasharray: none; stroke-linecap: butt; stroke-dashoffset: 0; stroke-linejoin: miter; stroke-miterlimit: 4; fill: rgb(245,130,25); fill-rule: nonzero; opacity: 1;" vector-effect="non-scaling-stroke" transform=" translate(-359.59, -76.89)" d="M 375.946 -13.945 C 375.946 -13.945 408.129 18.757 345.32 68.07 C 294.969 108.039 333.9 130.879 345.32 156.833 C 315.732 130.36 294.45 107.001 308.984 85.199 C 330.267 53.016 388.923 37.444 375.946 -13.945 Z M 359.335 135.032 C 374.388 152.162 355.183 167.734 355.183 167.734 C 355.183 167.734 393.595 148.009 375.946 123.612 C 359.854 100.253 347.396 88.834 414.877 49.902 C 414.877 49.902 308.465 76.376 359.335 135.032 Z" stroke-linecap="round"/>
      </g>
    </g>
  </g>
</svg>