<svg xmlns="http://www.w3.org/2000/svg" width="200" height="200" viewBox="0 0 200 200" version="1.1"><path d="M 161.285 22.776 C 160.617 23.215, 158.521 27.383, 156.627 32.037 C 154.733 36.692, 150.694 46.487, 147.650 53.804 C 141.644 68.244, 141.654 68.392, 148.622 67.817 C 152.158 67.525, 152.583 67.152, 154.109 63 L 155.763 58.500 164.733 58.214 L 173.704 57.929 175.802 62.977 L 177.899 68.024 182.700 67.737 C 188.404 67.395, 188.422 68.196, 182.379 53.500 C 179.892 47.450, 176.297 38.675, 174.392 34 C 172.487 29.325, 170.561 24.825, 170.113 24 C 169.215 22.347, 163.205 21.514, 161.285 22.776 M 16.231 45.200 L 16.500 67.500 21 67.500 L 25.500 67.500 25.780 54.750 C 25.934 47.737, 26.384 42.008, 26.780 42.017 C 27.176 42.027, 29.748 46.077, 32.495 51.017 C 35.242 55.958, 37.761 60, 38.092 60 C 38.423 60, 40.648 56.369, 43.037 51.932 C 50.139 38.736, 49.932 38.672, 49.968 54.090 L 50 67.681 54.750 67.590 L 59.500 67.500 59.500 45.500 L 59.500 23.500 54.323 23.200 L 49.147 22.901 43.823 32.449 C 40.895 37.701, 38.275 41.991, 38 41.982 C 37.725 41.973, 35.208 37.811, 32.407 32.733 L 27.315 23.500 21.638 23.200 L 15.961 22.899 16.231 45.200 M 68 45.567 L 68 68.133 84.250 67.817 L 100.500 67.500 100.500 63 L 100.500 58.500 89.250 58.217 L 78 57.934 78 53.967 L 78 50 88.055 50 L 98.110 50 97.805 45.250 L 97.500 40.500 87.750 40.214 L 78 39.928 78 35.964 L 78 32 89 32 L 100 32 100 27.500 L 100 23 84 23 L 68 23 68 45.567 M 108 28 L 108 33 115 33 L 122 33 122 50.510 L 122 68.019 126.750 67.760 L 131.500 67.500 131.773 50.295 L 132.047 33.090 138.773 32.795 L 145.500 32.500 145.805 27.750 L 146.110 23 127.055 23 L 108 23 108 28 M 162.264 42.250 L 160.261 47.500 162.394 48.100 C 164.940 48.817, 168.304 48.654, 169 47.781 C 169.612 47.013, 165.817 37, 164.914 37 C 164.559 37, 163.366 39.362, 162.264 42.250" stroke="none" fill="#fffffd" fill-rule="evenodd"/><path d="M 100.286 27.500 C 100.294 30.250, 100.488 31.256, 100.718 29.736 C 100.947 28.216, 100.941 25.966, 100.704 24.736 C 100.467 23.506, 100.279 24.750, 100.286 27.500 M 59.158 34 C 59.158 35.375, 59.385 35.938, 59.662 35.250 C 59.940 34.563, 59.940 33.438, 59.662 32.750 C 59.385 32.063, 59.158 32.625, 59.158 34 M 25.806 54.954 C 25.638 62.078, 25.811 67.590, 26.192 67.204 C 27.108 66.271, 27.700 41.996, 26.806 41.998 C 26.424 41.999, 25.974 47.829, 25.806 54.954 M 16 131.384 L 16 180 42.250 179.988 C 69.747 179.976, 74.376 179.430, 82.500 175.244 C 91.079 170.824, 95.259 163.541, 95.281 152.977 C 95.299 144.021, 92.614 138.202, 86.339 133.599 C 83.678 131.647, 80.835 130.038, 80.022 130.025 C 79.181 130.011, 80.112 128.708, 82.182 127.001 C 87.572 122.558, 90 116.779, 90 108.390 C 90 102.297, 89.587 100.720, 86.746 95.966 C 83.998 91.367, 82.426 89.978, 76.636 87.030 L 69.781 83.540 42.890 83.154 L 16 82.768 16 131.384 M 102 84.115 C 102 84.763, 103.507 87.590, 105.349 90.396 C 107.191 93.203, 113.952 103.478, 120.373 113.229 L 132.048 130.958 116.024 154.964 C 107.211 168.167, 100 179.201, 100 179.485 C 100 179.768, 105.338 180, 111.862 180 L 123.724 180 133.031 165.250 C 138.150 157.137, 142.890 149.889, 143.563 149.141 C 144.567 148.029, 145.299 148.662, 147.611 152.641 C 149.163 155.314, 153.708 162.563, 157.710 168.750 L 164.988 180 177.101 180 C 186.880 180, 189.114 179.739, 188.694 178.645 C 188.408 177.900, 181.385 167.079, 173.087 154.598 C 164.789 142.117, 158 131.270, 158 130.494 C 158 129.717, 164.690 119.051, 172.867 106.791 C 181.044 94.531, 187.543 84.162, 187.308 83.750 C 186.758 82.782, 165.830 82.796, 164.467 83.765 C 163.542 84.423, 156.505 95.166, 148.431 108.248 C 146.819 110.860, 145.247 112.997, 144.938 112.998 C 144.629 112.999, 141.929 109.108, 138.938 104.351 C 135.947 99.594, 131.700 92.957, 129.500 89.601 L 125.500 83.500 113.750 83.218 C 105.239 83.014, 102 83.261, 102 84.115 M 37 112.423 L 37 122 48.532 122 C 60.924 122, 66.004 120.729, 67.920 117.150 C 69.719 113.788, 69.170 109.309, 66.589 106.306 C 64.198 103.523, 64.065 103.497, 50.589 103.173 L 37 102.845 37 112.423 M 37.667 140.667 C 37.300 141.033, 37 145.758, 37 151.167 L 37 161 48.750 160.956 C 68.687 160.883, 74 158.682, 74 150.500 C 74 145.669, 71.336 142.530, 65.917 140.976 C 62.108 139.884, 38.706 139.627, 37.667 140.667" stroke="none" fill="#f9d609" fill-rule="evenodd"/><path d="M -0 100.005 L -0 200.010 100.250 199.755 L 200.500 199.500 200.755 99.750 L 201.010 0 100.505 0 L 0 0 -0 100.005 M 0.481 100.500 C 0.481 155.500, 0.602 178.147, 0.750 150.826 C 0.898 123.506, 0.898 78.506, 0.750 50.826 C 0.602 23.147, 0.481 45.500, 0.481 100.500 M 151.569 43.750 C 146.719 55.712, 142.533 66.063, 142.268 66.750 C 141.920 67.651, 143.234 68, 146.979 68 L 152.172 68 154.284 63 L 156.397 58 165 58 L 173.603 58 175.716 63 L 177.828 68 182.914 68 C 185.711 68, 188 67.662, 188.001 67.250 C 188.001 66.838, 183.884 56.488, 178.852 44.250 L 169.703 22 165.046 22 L 160.388 22 151.569 43.750 M 16 45.552 L 16 68.105 21.250 67.802 L 26.500 67.500 27 55.113 L 27.500 42.727 32.342 51.363 C 35.005 56.114, 37.556 60, 38.011 60 C 38.466 60, 40.913 56.193, 43.449 51.540 C 45.986 46.887, 48.497 42.811, 49.030 42.481 C 49.638 42.106, 50 46.783, 50 54.996 L 50 68.110 54.750 67.805 L 59.500 67.500 59.769 45.200 L 60.039 22.899 54.294 23.200 L 48.549 23.500 43.944 31.780 C 41.412 36.334, 38.926 40.472, 38.420 40.976 C 37.861 41.533, 35.537 38.185, 32.500 32.448 L 27.500 23.005 21.750 23.002 L 16 23 16 45.552 M 68 45.500 L 68 68 84.500 68 L 101 68 101 63 L 101 58 89.500 58 L 78 58 78 54 L 78 50 88 50 L 98 50 98 45 L 98 40 88 40 L 78 40 78 36 L 78 32 89.500 32 L 101 32 101 27.500 L 101 23 84.500 23 L 68 23 68 45.500 M 108 28 L 108 33 115 33 L 122 33 122 50.555 L 122 68.110 126.750 67.805 L 131.500 67.500 131.774 50.250 L 132.047 33 139.024 33 L 146 33 146 28 L 146 23 127 23 L 108 23 108 28 M 162.380 42.570 L 160.259 48 165.094 48 L 169.929 48 167.901 43.250 C 166.785 40.638, 165.564 38.194, 165.186 37.820 C 164.809 37.446, 163.546 39.583, 162.380 42.570 M 16 131.384 L 16 180 42.250 179.988 C 69.747 179.976, 74.376 179.430, 82.500 175.244 C 91.079 170.824, 95.259 163.541, 95.281 152.977 C 95.299 144.021, 92.614 138.202, 86.339 133.599 C 83.678 131.647, 80.835 130.038, 80.022 130.025 C 79.181 130.011, 80.112 128.708, 82.182 127.001 C 87.572 122.558, 90 116.779, 90 108.390 C 90 102.297, 89.587 100.720, 86.746 95.966 C 83.998 91.367, 82.426 89.978, 76.636 87.030 L 69.781 83.540 42.890 83.154 L 16 82.768 16 131.384 M 102 84.115 C 102 84.763, 103.507 87.590, 105.349 90.396 C 107.191 93.203, 113.952 103.478, 120.373 113.229 L 132.048 130.958 116.024 154.964 C 107.211 168.167, 100 179.201, 100 179.485 C 100 179.768, 105.338 180, 111.862 180 L 123.724 180 133.031 165.250 C 138.150 157.137, 142.890 149.889, 143.563 149.141 C 144.567 148.029, 145.299 148.662, 147.611 152.641 C 149.163 155.314, 153.708 162.563, 157.710 168.750 L 164.988 180 177.101 180 C 186.880 180, 189.114 179.739, 188.694 178.645 C 188.408 177.900, 181.385 167.079, 173.087 154.598 C 164.789 142.117, 158 131.270, 158 130.494 C 158 129.717, 164.690 119.051, 172.867 106.791 C 181.044 94.531, 187.543 84.162, 187.308 83.750 C 186.758 82.782, 165.830 82.796, 164.467 83.765 C 163.542 84.423, 156.505 95.166, 148.431 108.248 C 146.819 110.860, 145.247 112.997, 144.938 112.998 C 144.629 112.999, 141.929 109.108, 138.938 104.351 C 135.947 99.594, 131.700 92.957, 129.500 89.601 L 125.500 83.500 113.750 83.218 C 105.239 83.014, 102 83.261, 102 84.115 M 37 112.423 L 37 122 48.532 122 C 60.924 122, 66.004 120.729, 67.920 117.150 C 69.719 113.788, 69.170 109.309, 66.589 106.306 C 64.198 103.523, 64.065 103.497, 50.589 103.173 L 37 102.845 37 112.423 M 37.667 140.667 C 37.300 141.033, 37 145.758, 37 151.167 L 37 161 48.750 160.956 C 68.687 160.883, 74 158.682, 74 150.500 C 74 145.669, 71.336 142.530, 65.917 140.976 C 62.108 139.884, 38.706 139.627, 37.667 140.667" stroke="none" fill="#301f43" fill-rule="evenodd"/></svg>