<svg xmlns="http://www.w3.org/2000/svg" width="1720" height="1145" viewBox="0 0 1720 1145" version="1.1"><path d="M 530.723 327.775 L 524 334.550 524 424.052 L 524 513.554 530.775 520.277 L 537.550 527 563.554 527 L 589.558 527 595.779 520.723 L 602 514.446 602 488.979 L 602 463.512 633.756 495.256 L 665.512 527 691.533 527 L 717.554 527 724.426 520.074 L 731.299 513.149 730.583 423.324 L 729.867 333.500 723.712 327.250 L 717.558 321 691.502 321 L 665.446 321 658.723 327.775 L 652 334.550 652 358.901 L 652 383.251 620.468 352.126 L 588.935 321 563.191 321 L 537.446 321 530.723 327.775" stroke="none" fill="#77bc43" fill-rule="evenodd"/><path d="" stroke="none" fill="#000000" fill-rule="evenodd"/><path d="M 1034.001 319.750 L 973.503 320.016 954.251 339.248 L 935 358.481 935 423 L 935 487.519 954.259 506.760 L 973.519 526 1038 526 L 1102.481 526 1121.741 506.760 L 1141 487.519 1141 467.481 L 1141 447.442 1134.723 441.221 L 1128.446 435 1095.723 435 L 1063 435 1063 441.500 L 1063 448 1038 448 L 1013 448 1013 423 L 1013 398 1038 398 L 1063 398 1063 404 L 1063 410 1095.779 410 L 1128.558 410 1134.779 403.723 L 1141 397.446 1141 377.964 L 1141 358.481 1121.241 338.741 C 1102.537 320.054, 1101.295 319.013, 1097.991 319.242 C 1096.071 319.375, 1067.276 319.604, 1034.001 319.750 M 1117 320.500 C 1117 321.333, 1117.889 322, 1119 322 C 1120.704 322, 1121 322.667, 1121 326.500 C 1121 329.833, 1121.389 331, 1122.500 331 C 1123.611 331, 1124 329.833, 1124 326.500 C 1124 323.167, 1124.389 322, 1125.500 322 C 1126.325 322, 1127 321.325, 1127 320.500 C 1127 319.367, 1125.778 319, 1122 319 C 1118.222 319, 1117 319.367, 1117 320.500 M 1128 324.930 C 1128 329.659, 1128.331 331, 1129.500 331 C 1130.451 331, 1131.029 329.993, 1131.079 328.250 L 1131.158 325.500 1132.162 328.250 C 1133.380 331.584, 1135.312 331.793, 1136.780 328.750 L 1137.865 326.500 1137.932 328.750 C 1137.972 330.053, 1138.631 331, 1139.500 331 C 1140.667 331, 1141 329.667, 1141 325 C 1141 319.734, 1140.763 319, 1139.065 319 C 1137.754 319, 1136.714 320.150, 1135.841 322.563 L 1134.553 326.126 1133.442 322.813 C 1132.711 320.633, 1131.591 319.391, 1130.166 319.180 C 1128.147 318.883, 1128 319.274, 1128 324.930" stroke="none" fill="#799fd3" fill-rule="evenodd"/><path d="" stroke="none" fill="#000000" fill-rule="evenodd"/><path d="M 736.221 326.277 L 730 332.554 730 372.033 L 730 411.512 762 443.500 L 794 475.488 794 494.521 L 794 513.554 800.775 520.277 L 807.550 527 833.052 527 L 858.554 527 865.277 520.225 L 872 513.450 872 493.969 L 872 474.488 903.340 443.160 L 934.679 411.833 935.315 372.667 L 935.951 333.500 929.252 326.750 L 922.554 320 896.498 320 L 870.442 320 864.221 326.277 L 858 332.554 858 345.541 L 858 358.529 845.236 371.265 L 832.472 384.001 819.736 371.236 L 807 358.472 807 345.959 L 807 333.446 800.225 326.723 L 793.450 320 767.946 320 L 742.442 320 736.221 326.277" stroke="none" fill="#fba41c" fill-rule="evenodd"/><path d="M 748 620.500 L 748 684 763 684 L 778 684 778 679.384 L 778 674.767 781.940 678.327 C 789.053 684.753, 791.298 685.500, 803.500 685.500 C 816.671 685.500, 821.060 683.893, 829.378 676.027 C 844.858 661.386, 848.682 629.623, 837.553 608.103 C 831.132 595.685, 817.380 588.259, 802.579 589.217 C 794.249 589.757, 787.954 592.291, 782.746 597.203 L 779 600.736 779 578.868 L 779 557 763.500 557 L 748 557 748 620.500 M 856.338 596.164 C 856.702 617.704, 857 646.291, 857 659.690 L 857 684.052 872.250 683.776 L 887.500 683.500 887.484 669.250 C 887.475 661.413, 887.363 632.950, 887.234 606 L 887 557 871.338 557 L 855.675 557 856.338 596.164 M 905 569 L 905 581 920.500 581 L 936 581 936 569 L 936 557 920.500 557 L 905 557 905 569 M 525.337 598.664 C 525.702 621.029, 526 649.604, 526 662.164 L 526 685 537.860 685 C 544.384 685, 551.809 684.714, 554.360 684.364 L 559 683.728 559 663.503 L 559 643.277 578.250 642.707 C 590.355 642.348, 599.411 641.598, 602.650 640.685 C 614.993 637.207, 624.033 629.579, 628.176 619.147 C 630.101 614.302, 630.425 611.582, 630.460 600 C 630.498 587.262, 630.342 586.161, 627.698 580.500 C 622.612 569.611, 614.569 563.342, 601.344 559.960 C 594.459 558.199, 590.172 558, 559.177 558 L 524.675 558 525.337 598.664 M 559 600.406 L 559 616 572.750 615.998 C 587.931 615.997, 591.526 614.997, 595.412 609.699 C 598.287 605.779, 598.293 596.208, 595.422 592.363 C 590.713 586.056, 589.106 585.530, 573.429 585.156 L 559 584.812 559 600.406 M 987.907 589.022 C 980.577 590.158, 973.400 592.940, 967.719 596.849 C 944.934 612.526, 941.369 652.083, 960.975 671.689 C 983.379 694.093, 1024.830 689.104, 1038.291 662.383 C 1040.230 658.534, 1043 649.162, 1043 646.451 C 1043 646.203, 1036.267 646, 1028.039 646 L 1013.077 646 1012.012 649.955 C 1009.794 658.192, 1003.064 662.718, 994.473 661.750 C 988.782 661.108, 984.683 658.025, 981.836 652.243 C 979.818 648.145, 979.510 646.071, 979.571 637 C 979.653 625.001, 980.956 621.002, 986.317 616.294 C 994.659 608.970, 1009.094 612.556, 1011.609 622.577 L 1012.217 625 1027.154 625 L 1042.091 625 1041.449 621.250 C 1040.375 614.966, 1035.551 605.739, 1030.947 601.159 C 1021.299 591.562, 1003.644 586.583, 987.907 589.022 M 905 637.625 L 905 684.250 908.125 683.625 C 909.844 683.281, 916.819 683, 923.625 683 L 936 683 936 637 L 936 591 920.500 591 L 905 591 905 637.625 M 641.017 623.750 C 641.036 658.322, 641.830 665.621, 646.422 673.457 C 656.248 690.224, 685.500 691.454, 700.250 675.722 L 703 672.788 703 678.394 L 703 684 718 684 L 733 684 733 638 L 733 592 717.556 592 L 702.113 592 701.806 620.750 C 701.523 647.388, 701.353 649.749, 699.500 652.895 C 696.612 657.799, 692.838 660.213, 687.215 660.753 C 680.328 661.415, 675.642 659.061, 673.578 653.903 C 672.268 650.629, 672 645.041, 672 620.980 L 672 592 656.500 592 L 641 592 641.017 623.750 M 787.825 615.176 C 785.572 616.483, 783.058 619.278, 781.325 622.403 C 778.737 627.073, 778.505 628.338, 778.558 637.500 C 778.650 653.225, 782.835 660.491, 792.885 662.371 C 805.104 664.656, 813.680 652.957, 812.843 635.146 C 812.408 625.904, 809.217 618.641, 804.102 615.251 C 799.657 612.306, 792.831 612.274, 787.825 615.176 M 561.362 711.981 C 546.782 715.804, 536.794 723.087, 531.850 733.500 C 529.450 738.556, 529.001 740.770, 529.001 747.572 C 529 757.261, 530.865 763.313, 535.529 768.763 C 542.454 776.853, 551.049 780.917, 574.380 787.133 C 590.154 791.336, 598.266 794.761, 599.964 797.933 C 601.293 800.416, 601.294 805.581, 599.967 808.062 C 597.022 813.565, 581.940 816.578, 571.920 813.665 C 564.090 811.389, 559 805.389, 559 798.435 L 559 796 541.858 796 L 524.715 796 525.331 801.891 C 527.355 821.258, 541.050 834.923, 563.152 839.632 C 574.395 842.028, 594.916 841.042, 605.661 837.591 C 615.040 834.578, 624.015 828.509, 628.329 822.260 C 634.370 813.514, 636.655 798.816, 633.569 788.562 C 629.223 774.121, 617.906 766.921, 587.741 759.407 C 571.050 755.249, 565.784 753.126, 563.496 749.634 C 561.212 746.148, 562.333 741.611, 566.151 738.893 C 569.879 736.238, 579.694 735.288, 585.940 736.978 C 591.770 738.555, 597 743.720, 597 747.900 L 597 751 614.138 751 L 631.275 751 630.623 745.250 C 628.836 729.500, 616.938 717.006, 599.020 712.063 C 589.099 709.327, 571.633 709.289, 561.362 711.981 M 1061 774 L 1061 837 1076.500 837 L 1092 837 1092 774 L 1092 711 1076.500 711 L 1061 711 1061 774 M 745 775 L 745 838 760.444 838 L 775.887 838 776.194 809.250 C 776.480 782.356, 776.633 780.274, 778.554 777.003 C 782.706 769.936, 790.616 767.227, 798.785 770.075 C 805.314 772.351, 805.467 773.163, 805.803 807.250 L 806.107 838 821.620 838 L 837.134 838 836.817 801.750 C 836.508 766.382, 836.444 765.378, 834.201 760.500 C 831.178 753.928, 825.913 748.651, 819.607 745.876 C 815.525 744.079, 812.593 743.618, 805 743.578 C 796.591 743.534, 794.781 743.859, 789.238 746.406 C 785.758 748.006, 781.427 750.999, 779.488 753.145 L 776 757.006 776 734.503 L 776 712 760.500 712 L 745 712 745 775 M 1133.427 743.465 C 1124.335 745.116, 1118.322 747.812, 1112.971 752.637 C 1107.528 757.546, 1105.048 762.964, 1105.028 770 C 1105.004 777.793, 1106.588 782.538, 1110.748 787.143 C 1115.956 792.907, 1120.203 794.693, 1139.185 799.100 C 1156.566 803.136, 1160.456 804.712, 1161.552 808.163 C 1162.541 811.281, 1160.129 815.711, 1156.507 817.430 C 1152.333 819.410, 1143.785 819.457, 1140.039 817.520 C 1136.272 815.572, 1133 811.317, 1133 808.365 L 1133 806 1117.988 806 L 1102.976 806 1103.574 810.250 C 1104.589 817.476, 1109.591 826.596, 1114.662 830.468 C 1130.377 842.468, 1163.450 842.731, 1180.511 830.992 C 1191.621 823.349, 1195.946 807.573, 1190.061 796.158 C 1187.495 791.180, 1182.409 786.499, 1177 784.138 C 1174.525 783.057, 1166.471 780.987, 1159.102 779.538 C 1140.589 775.897, 1136 773.702, 1136 768.485 C 1136 764.631, 1139.508 763, 1147.799 763 C 1154.595 763, 1155.376 763.222, 1158.077 765.923 C 1159.685 767.531, 1161 769.781, 1161 770.923 C 1161 772.927, 1161.494 773, 1175 773 L 1189 773 1189 769.866 C 1189 761.159, 1182.712 751.914, 1173.674 747.335 C 1164.083 742.475, 1147.604 740.890, 1133.427 743.465 M 681 744.081 C 673.203 744.944, 667.348 747.123, 660.106 751.859 C 643.578 762.666, 635.710 789.310, 642.886 810.169 C 649.733 830.069, 669.169 842.138, 692 840.664 C 705.700 839.780, 715.269 835.609, 723.684 826.853 C 729.581 820.718, 734.838 809.262, 734.976 802.250 C 734.994 801.305, 731.378 801, 720.158 801 L 705.317 801 704.132 804.955 C 701.632 813.300, 695.023 817.714, 686.473 816.750 C 680.769 816.107, 676.736 813.061, 673.915 807.266 C 672 803.334, 671.586 800.838, 671.547 793 C 671.494 782.261, 672.811 777.424, 677.126 772.509 C 684.778 763.794, 700.925 766.884, 703.609 777.577 L 704.217 780 719.108 780 C 736.006 780, 735.077 780.639, 732.095 771.058 C 726.167 752.010, 705.927 741.324, 681 744.081 M 883.265 744.542 C 857.810 751.397, 843.202 777.026, 849.508 803.769 C 851.574 812.535, 855.336 819.452, 861.618 826.038 C 870.831 835.697, 881.581 840, 896.500 840 C 911.236 840, 921.754 835.855, 931.339 826.270 C 953.375 804.234, 947.984 763.463, 921.142 749.156 C 909.929 743.180, 895.051 741.367, 883.265 744.542 M 984.798 744.931 C 964.702 751.356, 952 769.391, 952 791.500 C 952 819.359, 972.641 840, 1000.500 840 C 1014.213 840, 1025.841 835.319, 1035.080 826.080 C 1041.585 819.575, 1045.370 812.772, 1047.492 803.769 C 1053.724 777.337, 1039.029 750.929, 1014.540 744.552 C 1006.390 742.430, 992.049 742.612, 984.798 744.931 M 996.185 766.980 C 992.110 767.956, 988.490 771.229, 985.653 776.500 C 983.840 779.869, 983.500 782.157, 983.500 791 C 983.500 800.200, 983.809 802.119, 986 806.499 C 989.546 813.589, 993.922 816.287, 1001.065 815.788 C 1008.035 815.301, 1012.054 812.586, 1015.090 806.314 C 1019.605 796.987, 1018.497 779.716, 1012.930 772.638 C 1009.155 767.839, 1002.285 765.518, 996.185 766.980 M 887.957 769.250 C 886.121 770.487, 883.467 773.738, 882.059 776.472 C 879.814 780.834, 879.500 782.676, 879.500 791.472 C 879.500 800.182, 879.829 802.150, 882 806.448 C 884.817 812.023, 888.059 814.784, 893.077 815.881 C 900.431 817.489, 906.817 814.293, 911 806.911 C 913.229 802.978, 913.500 801.359, 913.500 791.973 C 913.500 782.642, 913.209 780.882, 910.941 776.473 C 907.521 769.829, 903.209 767, 896.500 767 C 892.759 767, 890.357 767.633, 887.957 769.250" stroke="none" fill="#3d5a59" fill-rule="evenodd"/></svg>