<?xml version="1.0" encoding="UTF-8" standalone="no"?>
<!-- Created with Inkscape (http://www.inkscape.org/) -->

<svg
   version="1.1"
   id="svg2"
   width="617.40002"
   height="617.40002"
   viewBox="0 0 617.40002 617.40002"
   sodipodi:docname="rit-tigers-seeklogo.eps"
   xmlns:inkscape="http://www.inkscape.org/namespaces/inkscape"
   xmlns:sodipodi="http://sodipodi.sourceforge.net/DTD/sodipodi-0.dtd"
   xmlns="http://www.w3.org/2000/svg"
   xmlns:svg="http://www.w3.org/2000/svg">
  <defs
     id="defs6" />
  <sodipodi:namedview
     id="namedview4"
     pagecolor="#ffffff"
     bordercolor="#000000"
     borderopacity="0.25"
     inkscape:showpageshadow="2"
     inkscape:pageopacity="0.0"
     inkscape:pagecheckerboard="0"
     inkscape:deskcolor="#d1d1d1" />
  <g
     id="g8"
     inkscape:groupmode="layer"
     inkscape:label="ink_ext_XXXXXX"
     transform="matrix(1.3333333,0,0,-1.3333333,0,617.4)">
    <g
       id="g10"
       transform="scale(0.1)">
      <path
         d="m 1078.34,4373.18 c 100.71,24.16 181.53,13.57 241.49,-28.35 59.82,-41.9 90,-108.73 90,-198.49 v -222.19 c 0,-58.14 -20.65,-106.49 -61.56,-145.85 -40.9,-39.51 -103.88,-71.58 -188.19,-99.42 90.74,3.57 155.36,-9.43 193.09,-35.19 37.68,-25.78 56.66,-68.86 56.66,-128.37 v -215.89 c 46.22,7.12 92.64,13.55 139.11,19.1 v -303.41 c -137.52,-16.58 -274.11,-40.08 -409.29,-70.41 -62.54,-14.03 -109.04,-15.24 -139.654,-1.87 -30.641,13.23 -45.832,41.2 -45.832,84.59 v 461.52 C 865.535,3464.61 777.781,3437.21 691.055,3406.8 V 2816.5 C 492.027,2746.89 299.063,2661.06 114.098,2559.84 v 303.47 c 41.097,22.54 82.636,44.31 124.558,65.28 v 835.68 c -41.843,-20.97 -83.429,-42.75 -124.558,-65.29 v 303.62 c 303.515,166.23 628.621,289.86 964.242,370.6 z m -387.285,-696.1 c 81.972,28.71 164.843,54.73 248.613,78.07 v 278.48 c -83.691,-23.29 -166.617,-49.3 -248.613,-78.04 v -278.61 0.1"
         style="fill:#cd4430;fill-opacity:1;fill-rule:nonzero;stroke:none"
         id="path12" />
      <path
         d="m 1116.08,4256.72 0.05,-0.18 -0.05,-0.05 h -0.92 c -235.789,-56.16 -465.789,-134.33 -686.976,-233.42 -41.129,-18.43 -83.641,-38.53 -127.621,-60.36 -21.852,-10.71 -43.059,-21.51 -63.801,-32.2 v -40.15 l 125.207,62.23 V 2857.71 l -65.676,-32.54 c -19.613,-9.77 -39.688,-19.92 -59.992,-30.56 v -40.57 c 110.09,52.86 222.5,100.69 336.906,143.36 l 6.836,2.49 v 589.51 l 79.582,27.65 c 64.594,22.52 129.754,43.42 195.402,62.64 l 38.2,11.21 c 12.386,3.47 0.461,-0.05 38.711,10.34 l 149.362,40.4 v -589.07 c 12.06,1.34 26.12,3.78 42.24,7.41 105.57,23.55 212.01,43.08 319.04,58.58 v 65.37 l -3.4,-0.49 -136.38,-20.95 v 352.25 c 0,15.83 -1.59,26.12 -4.73,30.74 l -0.46,0.46 c -10.16,6.87 -31.77,11.73 -65.32,14.09 -8.87,0.69 -17.78,1.16 -26.7,1.39 -8.8,0.13 -19.08,0 -30.75,-0.52 h -0.46 l -0.05,1.62 -41.33,226.74 c 37.86,12.42 69.11,24.78 93.43,37.42 21.26,11.03 38.3,22.52 50.97,34.66 9.13,8.79 15.66,17.58 19.56,26.7 4.17,9.82 6.25,21.26 6.25,34.37 h -0.46 v 221.55 h 0.46 c 0,37.75 -7.51,66.36 -22.47,85.49 -4.57,5.63 -9.79,10.69 -15.54,15.09 l -0.24,-0.31 -1.85,1.82 c -21.31,14.75 -50.77,21.41 -88.4,19.38 -7.37,-0.46 -16.68,-1.48 -27.88,-3.16 -10.31,-1.47 -20.57,-3.34 -30.75,-5.6 z m -56.45,227.26 h 1.03 c 20.52,4.9 37.51,8.35 51.03,10.38 15.55,2.31 32.26,4.03 50.1,4.96 90.81,4.99 169.1,-15.71 234.21,-60.07 l 0.24,0.46 0.02,-0.08 1.87,-1.82 c 13.99,-9.72 26.43,-19.67 37.41,-30 11.31,-10.64 22,-22.42 31.95,-35.19 47.6,-60.84 71.58,-137.39 71.58,-228.61 h 0.47 v -221.55 h -0.47 c 0,-44.93 -8.32,-86.57 -24.8,-125.18 -12.93,-30.25 -30.59,-58.27 -52.34,-82.97 8.49,-8.1 16.3,-16.81 23.47,-26.11 36.04,-46.5 54.08,-104.47 54.08,-173.41 v -80.66 l 7.66,0.92 132.25,15.79 v -538.99 l -104.51,-12.42 h -0.1 c -29.36,-3.5 -48.15,-5.84 -56.17,-6.89 -9.66,-1.31 -28.58,-4.03 -56.5,-8.15 -96.18,-14.11 -191.83,-31.74 -286.75,-52.79 -38.94,-8.66 -74.36,-13.42 -106.26,-13.99 -40.44,-0.64 -76.139,5.48 -107.221,18.89 l 0.055,0.19 c -40.231,17.37 -70.555,44.69 -91.098,82.14 -17.191,31.49 -25.809,67.89 -25.809,109.38 h -0.461 v 303.33 l -27.808,-8.84 v -587.6 l -78.992,-27.74 h -0.489 C 683.02,2688.53 629.219,2668.45 575.879,2647.17 438.746,2592.47 304.957,2529.72 175.227,2459.21 L 0.464844,2364.16 v 572.7 l 61.121056,30.33 -0.0781,0.17 18.332,9.82 c 19.379,10.41 -13.0625,-7.14 17.8594,9.31 l 27.5038,14.44 v 567.02 L 0,3499.73 v 571.48 l 61.6406,31.95 -0.1015,0.21 c 44.0819,23.98 88.5979,47.14 133.5309,69.45 43.078,21.29 88.45,42.6 135.95,63.98 234.683,104.84 478.644,187.51 728.72,246.91 l -0.11,0.21 z m -242.821,-646.09 13.211,3.94 v 32.33 l -13.211,-4.21 z m -81.356,-272.87 h -0.051 l -36.988,111.04 H 580.043 v 360.71 l 79.582,27.61 c 60.996,21.26 122.508,41.1 184.453,59.5 15.809,4.63 28.016,8.23 36.606,10.64 5.089,1.52 7.121,1.91 36.242,9.95 h 0.461 l 149.393,40.39 v -519.72 l -86.932,-24.03 c -54.825,-15.15 -113.172,-32.88 -174.914,-53.09 -21.414,-6.94 -32.801,-10.74 -33.856,-11.1 -20.742,-6.94 -31.875,-10.75 -33.773,-11.39 l -1.852,-0.46 v -0.05"
         style="fill:#ffffff;fill-opacity:1;fill-rule:nonzero;stroke:none"
         id="path14" />
      <path
         d="m 1094.65,4389.47 c 100.68,24.16 181.47,13.52 241.44,-28.35 59.81,-41.87 90.01,-108.7 90.01,-198.44 v -222.21 c 0,-58.17 -20.66,-106.52 -61.58,-145.88 -40.9,-39.45 -103.88,-71.58 -188.18,-99.42 90.73,3.58 155.38,-9.43 193.09,-35.19 37.68,-25.78 56.67,-68.86 56.67,-128.34 v -215.86 c 46.25,7.06 92.62,13.49 139.09,19.12 v -303.49 c -137.52,-16.58 -274.21,-40.02 -409.29,-70.38 -62.54,-14.04 -109.03,-15.24 -139.7,-1.88 -30.563,13.21 -45.833,41.23 -45.833,84.52 v 461.62 c -88.605,-24.34 -176.336,-51.72 -263.058,-82.1 V 2832.84 C 508.281,2763.23 315.316,2677.41 130.348,2576.18 v 303.49 c 41.101,22.52 82.64,44.3 124.562,65.3 v 835.64 c -41.844,-20.97 -83.406,-42.74 -124.562,-65.29 v 303.57 c 303.519,166.28 628.629,289.87 964.302,370.63 z m -387.291,-696.1 c 82.028,28.74 164.946,54.77 248.637,78.09 v 278.5 C 872.305,4026.7 789.355,4000.7 707.359,3971.93 v -278.56"
         style="fill:#151415;fill-opacity:1;fill-rule:nonzero;stroke:none"
         id="path16" />
      <path
         d="M 2690.26,4501.07 V 4200.1 c -46.32,3.96 -92.75,7.18 -139.14,9.62 v -828.86 c 46.39,-2.29 92.77,-5.56 139.14,-9.59 v -300.98 c -255.06,21.93 -511.59,20.26 -766.35,-5.04 v 301.03 c 46.32,4.62 92.69,8.48 139.11,11.49 v 828.71 c -46.42,-3.06 -92.81,-6.87 -139.11,-11.44 v 300.97 c 254.76,25.32 511.29,27.02 766.35,5.09"
         style="fill:#cd4430;fill-opacity:1;fill-rule:nonzero;stroke:none"
         id="path18" />
      <path
         d="m 2567.96,4319.88 v 68.06 c -144.15,8.64 -288.65,9.65 -432.94,2.98 -35.21,-1.72 -70.43,-3.88 -105.59,-6.5 v -67.86 l 15.19,0.95 h 0.18 l 125.6,8.28 V 3253.38 l -110.81,-7.12 -29.72,-1.98 v -68.22 c 179.29,12.34 359.14,13.52 538.58,3.52 v 68.25 c -9.64,0.59 -19.28,1.13 -28.88,1.61 l -112.23,5.76 v 1072.08 l 124.23,-6.48 z m 236.38,177.58 V 4065.02 L 2676,4076.3 h -0.15 c -6.32,0.52 -9.88,0.9 -12.11,1.03 v -600.15 c 12.72,-0.92 23.62,-1.85 32.62,-2.59 l 107.6,-9.28 v -540.18 l -127.44,10.9 -1.4,0.08 c -35.11,3.06 -70.24,5.68 -105.46,7.87 -38.86,2.31 -73.92,4.03 -105.13,5.08 -180.62,6.07 -361.45,0.16 -541.31,-17.68 l -129.73,-12.88 v 540.1 l 106.8,10.44 v 0.02 l 20.11,1.93 c 4.37,0.44 2.77,0.21 13.56,1.18 v 600.58 c -3.7,-0.41 -7.27,-0.69 -10.74,-1.07 l -129.29,-12.78 v 539.81 l 106.18,10.57 1.39,0.18 c 41.77,4.17 78.86,7.38 111.33,9.74 37.01,2.63 74.05,4.78 111.12,6.48 190.67,9.02 381.73,5.4 571.92,-10.84 l 108.47,-9.36 v -108.06 0.04"
         style="fill:#ffffff;fill-opacity:1;fill-rule:nonzero;stroke:none"
         id="path20" />
      <path
         d="m 2673.92,4484.82 v -301.07 c -46.32,4 -92.69,7.22 -139.14,9.63 v -828.83 c 46.45,-2.29 92.82,-5.53 139.14,-9.54 v -301.02 c -255.07,21.92 -511.57,20.23 -766.3,-5.04 v 301.03 c 46.22,4.62 92.61,8.42 139.06,11.43 v 828.76 c -46.42,-3.06 -92.79,-6.86 -139.06,-11.49 v 301.05 c 254.76,25.29 511.29,26.99 766.35,5.09"
         style="fill:#151415;fill-opacity:1;fill-rule:nonzero;stroke:none"
         id="path22" />
      <path
         d="m 4166.68,3041.87 v -302.7 c -237.08,99.19 -483.11,175.43 -734.71,227.72 v 302.74 c 44.37,-9.25 88.63,-19.2 132.66,-30 v 833.59 c -53.84,13.14 -107.95,25.17 -162.29,36.12 v -236.38 c -116.96,23.47 -234.86,41.95 -353.39,55.42 v 539.07 c 512.57,-58.01 1013.97,-210.36 1467.38,-457.02 v -539.1 c -104.79,56.99 -212.15,109.04 -321.81,155.98 v 236.37 c -50.9,21.83 -102.28,42.57 -154.05,62.23 V 3092.3 c 42.37,-16.02 84.44,-32.88 126.21,-50.43"
         style="fill:#cd4430;fill-opacity:1;fill-rule:nonzero;stroke:none"
         id="path24" />
      <path
         d="m 4047.05,2907.54 v 51.9 c -12.93,5.09 -29.44,11.49 -49.77,19.18 l -75.93,28.99 v 1087.04 l 159.7,-61.02 c 36.38,-13.88 74.29,-29.18 113.85,-45.6 l 22.25,-9.46 c 26.05,-11.09 10.65,-4.3 21.78,-9.12 l 3.23,-1.86 68.07,-31.77 v -234.89 c 28.25,-12.82 56.5,-26.11 84.73,-39.84 v 277.15 c -297.97,155.92 -615.76,270.12 -942.61,342.66 -93.36,20.56 -187.41,37.79 -281.97,51.62 v -302.78 c 38.73,-5.39 77.44,-11.31 116.05,-17.73 v 238.87 l 140.78,-28.48 c 55.75,-11.23 111.27,-23.6 166.54,-37.04 l 89.73,-22 V 3086.29 l -132.45,32.59 v -61.87 c 168.28,-39.4 333.95,-89.32 496.02,-149.47 m 235.49,130.45 v -478.15 l -161.93,65.88 -1.39,0.93 c -32.05,13.47 -64.31,26.5 -96.77,39.04 -32.29,12.67 -64.73,24.96 -97.32,36.76 -168.26,60.25 -340.46,108.85 -515.4,145.49 l -93.33,19.63 v 543.27 l 131.48,-27.71 v 359.47 l -65.78,12.65 h -0.1 l -0.9,0.46 c -5.92,1.18 -21.75,4.27 -47.53,9.18 -4.91,0.92 -20.72,3.75 -47.58,8.5 -81.89,14.56 -164.18,26.56 -246.79,36.02 l -104.41,11.95 v 776.53 l 130.65,-14.81 h 0.57 c 146.85,-16.76 292.73,-41.23 437,-73.36 371.87,-82.46 732.06,-215.22 1066.29,-398.31 l 61.15,-33.52 v -806.35 l -173.39,93.31 v 0.02 l -0.93,0.49 c -7.36,4.02 -21.56,11.57 -42.59,22.78 l -42.93,22.7 c -70.12,35.9 -141.38,69.58 -213.65,100.94 v -343.49 c 14.55,-5.99 32.36,-13.45 53.41,-22.23 l 72.2,-30.57 v -77.5 h -0.03"
         style="fill:#ffffff;fill-opacity:1;fill-rule:nonzero;stroke:none"
         id="path26" />
      <path
         d="m 4166.73,3009.27 v -302.7 c -237.1,99.17 -483.14,175.41 -734.76,227.72 v 302.8 c 44.37,-9.26 88.63,-19.26 132.66,-30.05 v 833.59 c -53.84,13.14 -107.95,25.17 -162.29,36.09 v -236.4 c -116.96,23.49 -234.86,41.97 -353.39,55.41 v 539.13 c 512.57,-58.02 1013.91,-210.37 1467.38,-457.03 v -539.09 c -104.79,56.98 -212.15,109.01 -321.81,155.94 v 236.41 c -50.9,21.8 -102.25,42.54 -154.05,62.18 v -833.62 c 42.37,-16.07 84.47,-32.85 126.26,-50.38"
         style="fill:#151415;fill-opacity:1;fill-rule:nonzero;stroke:none"
         id="path28" />
      <path
         d="m 3619.59,342.398 v 48.954 h -9.83 l -11.41,-37.204 -11.62,37.204 h -9.92 v -48.954 h 6.4 v 40.852 h 0.18 l 12.78,-40.852 h 4.03 l 12.77,40.852 h 0.19 v -40.852 z m -50.75,42.391 v 6.5 h -30.79 v -6.5 h 12.18 v -42.391 h 6.45 v 42.391 h 12.16"
         style="fill:#658896;fill-opacity:1;fill-rule:nonzero;stroke:none"
         id="path30" />
      <path
         d="m 3512.9,1039.41 c 25.02,-38.37 35.01,-83.719 39.35,-116.211 4.55,-33.898 3.4,-82.199 1.42,-122.07 l -0.26,-5.32 2.81,-4.469 c 3.49,-5.66 6.72,-11.36 9.43,-16.602 12.18,-23.859 28.14,-63.008 29.45,-110.84 1.83,-69.25 -22.36,-162.707 -94.59,-221.648 -10.39,-8.41 -19.92,-15.762 -28.35,-21.98 l -5.48,-6.7 C 3450.62,377.781 3431.52,343.441 3409.6,310.898 3359.14,236.461 3269.48,138.648 3129.52,107.859 3090.76,99.3594 2883.4,26.5 2808.47,0 l 10.18,61.5117 -84.88,-22.5312 3.86,138.4295 -11.62,4.11 c -8.27,2.91 -16.42,6.082 -24.44,9.5 -60.35,25.8 -136.23,76.082 -175.56,171.39 -9.79,23.699 -19.1,47.629 -27.84,71.77 l -2.8,7.968 -135.44,42.461 c -122.71,20.082 -237.63,-7.039 -275.53,-43.39 -32.28,-31.02 -47.6,-56.731 -54.64,-71.399 -2.24,-4.601 -4.09,-9.34 -5.58,-14.242 -0.51,-2.137 -0.77,-4.379 -0.84,-6.59 l -0.47,-4.828 -4.04,-33.16 -12.02,-102.609 c -32.01,15.699 -91.36,44.929 -117.4,58.429 -34.78,18.09 -78.8,41.871 -104.07,59.481 -45.5,31.64 -105.21,79.929 -158.55,145.379 -18.66,22.949 -36.03,46.859 -52.1,71.691 l -13.73,21.047 -14.34,-20.59 c -6.14,-8.887 -10.82,-16.68 -13.65,-22.59 -2.88,-6.039 -4.68,-10.847 -5.66,-14.269 -0.48,-2.149 -0.77,-4.367 -0.82,-6.578 l -0.46,-4.801 -4.03,-33.11 -12.01,-102.66 c -32.03,15.7 -91.35,44.93 -117.36,58.469 -34.83,18.07 -78.87,41.77 -104.11,59.41 -45.52,31.692 -105.26,79.992 -158.59,145.41 -11.08,13.621 -21.7,27.602 -31.8,41.942 l -8.07,11.39 -12.73,-5.761 c -28.65,-12.91 -56.49,-22.899 -79.6,-30.36 -44.671,-14.601 -225.683,-51.371 -297.71,-65.949 l 24.781,66.418 c 0.621,1.563 57.144,153.629 68.453,224.84 1.566,9.73 2.773,22.031 3.699,36.141 l 1,15.441 -15.265,2.418 c -62.079,9.742 -114.231,27.781 -147.161,43.801 -21.254,10.41 -49.996,32.621 -70.605,49.23 -25.574,21.51 -50.844,43.39 -75.805,65.61 l 38.582,29.13 30.41,23.06 c 13.981,10.61 29.739,22.65 31.871,24.54 5.426,4.99 13.985,13.5 23.93,25.94 12.727,15.96 27.836,38.43 41.438,68.19 l 10.203,22.21 -24.317,1.81 c -15.265,1.15 -30.48,2.85 -43.082,4.47 -33.078,4.85 -66.082,10.25 -98.98,16.19 21.488,63.15 92.226,274.36 145.867,470 70.844,259.05 250.363,456.61 356.441,547.68 37.2,31.95 84.83,80.82 128.27,127.75 l 11.85,12.81 -13.06,11.49 c -31.15,27.47 -59.66,57.78 -85.21,90.55 -55.83,71.33 -138.779,202.35 -159.6,287.38 l -4.675,19.07 6.758,41.25 c 16.992,79.89 74.308,126.65 142.607,139.43 24.42,4.54 50.38,5.26 74.7,4.8 21.36,-0.41 46.26,-1.83 75.01,-3.37 103.81,-5.6 300.71,-7.35 434.68,8.62 134.92,16.11 366.98,73.87 366.98,73.87 62.85,14.81 156.98,34.52 271.65,46.7 l 13.28,1.34 6.66,0.72 c 32.05,3.03 97.71,7.71 175.97,4.34 65.67,-2.87 143.53,-23.67 198.42,-40.53 31.28,-9.61 58.57,-19.02 77.06,-25.68 l 5.62,-0.98 c 39.39,-0.18 101.52,-9.43 180.32,-48.66 27.58,-13.98 87.37,-50.35 137.54,-81.92 l 5.17,-3.23 6.12,0.82 c 16.19,2.23 33.28,4.34 49.68,5.96 28.08,2.8 69.4,5.89 101.07,-0.41 68.53,-13.57 101.43,-64.26 112.44,-106.67 3.24,-12.65 4.78,-24.86 5.37,-35.86 l 0.46,-9.54 8.48,-4.52 c 41.08,-21.85 115.85,-68.12 144.61,-148.65 8.8,-24.78 14.81,-47.17 18.85,-67.27 l 1.85,-9.22 8.78,-3.32 c 32.19,-12.18 67.77,-25.94 104.81,-40.72 89.44,-35.73 156.97,-70.37 204.94,-122.48 13.16,-14.16 24.39,-29.38 34.1,-45.13 9.29,-13.99 20.03,-31.34 30.39,-51.08 28.27,-53.69 59.63,-133.02 62.1,-226.42 2.41,-92.39 -24.72,-180.5 -48.68,-240.78 -8.18,-20.56 -20.18,-46.09 -32.63,-70.94 l -1.59,-5.09 c -6.01,-40.74 -14.68,-86.93 -27.12,-134.98 -17.83,-68.83 -47.83,-136.85 -81.69,-188.1 -16.65,-25.24 -37.16,-50.94 -61.3,-70.38 -20.17,-16.27 -66.11,-46.38 -123.28,-29.97 -49.5,14.19 -77.09,49.79 -90.65,80.01 -12.3,27.43 -15.37,54.79 -16.66,68.35 -1.78,18.38 -1.78,40.44 -2.21,63.91 l -1.08,56.96 -30.18,-48.3 c -48.4,-77.37 -107.16,-192.97 -101.33,-281.31 3.81,-58.81 18.62,-125.16 36.59,-187.08 l 3.7,-12.49 12.93,0.25 c 61.76,1.32 107.16,-34.25 132.55,-73.36"
         style="fill:#ffffff;fill-opacity:1;fill-rule:nonzero;stroke:none"
         id="path32" />
      <path
         d="m 3385.98,588 c -2.66,-11.539 -7.89,-22.34 -15.24,-31.609 -21.82,-25.692 -75.93,-41.34 -75.93,-41.34 0,0 -0.74,0.058 -11.18,-24.403 -13.75,-32.296 -31.23,-62.839 -52.18,-91.007 -22.72,-30.352 -54.29,-52.621 -81.36,-67.473 l -7.94,-4.219 c 0,0 -0.61,12.063 -2.08,19.61 -3.7,17.89 -18.99,42.882 -18.99,42.882 0,0 -14.09,-28 -27.04,-42.98 -12.27,-14.09 -33.42,-29.102 -36.35,-31.359 -0.75,2.257 2.08,6.199 -1.83,24.058 -3.32,15.399 -15.9,35.52 -15.9,35.52 0,0 -77.74,-64.41 -80.79,-65.871 -1.99,5.132 -4.38,10.07 -7.2,14.8 -7.33,12.032 -18.92,20.821 -32.44,24.7 -5.14,1.601 -10.41,2.8 -15.71,3.601 -4.5,0.692 -9.4,1.281 -14.67,2 -8.82,1.008 -18.84,2.16 -30.1,4.602 -11.94,2.578 -23.53,6.406 -34.6,11.527 -46.11,20.992 -71.93,62.379 -158.26,258.52 -88.35,200.882 -214.99,244.121 -222.03,246.25 l -74.89,24.011 c 0,0 57.42,-106.929 98.64,-179.992 -211.12,56.434 -585.12,168.684 -763.4,297.532 -169.37,122.51 -270.82,337.58 -270.82,337.58 0,0 -35.94,-128.04 41.08,-284.49 43.51,-88.399 114.35,-158.341 157.94,-196.001 -47.37,-5.301 -96.28,-14.75 -141.93,-30.89 -84.26,-29.739 -125.34,-68.399 -142.15,-86.168 -4.39,3.578 -8.56,7.429 -12.52,11.468 -14.85,15.192 -35.93,41.282 -59.06,84.411 -19.59,37.039 -34.6,76.289 -44.75,116.929 -7.87,31.361 -12.11,71.541 -12.11,71.541 l -128.24,-66.041 c 10.95,92.801 33.57,183.841 67.29,270.981 64.7,165.4 104.59,329.35 104.59,329.35 L 945.664,1257.91 c 6.039,25.8 11.824,54.62 17.535,85.47 13.41,73.05 27.035,159.29 43.921,245.17 25.6,130.73 93.59,224.58 155.44,285.85 30.9,30.59 113.69,115.46 113.69,115.46 0,0 -39.82,-6.47 -88.45,-20.07 -48.38,-13.63 -111.48,-35.39 -169.7,-67.91 -7.94,-4.48 -15.68,-9.33 -23.182,-14.53 4.16,11.45 9.122,24.07 14.952,37.66 24.11,55.47 63.16,124.34 123.15,179.83 118.5,109.65 359.81,345.75 385.32,370.76 14.59,6.96 85.84,40.1 167.2,61.3 91.46,23.91 227.48,31.49 227.48,31.49 l -21.15,28.07 c -3.24,4.27 -89.37,114.57 -348.81,120.58 -193.14,4.45 -287.09,47.42 -332.46,85.93 -13.93,11.83 -64.57,43.59 -103.26,67.37 32.26,-2.21 78.02,-7.3 130.3,-11.41 68.53,-5.37 147.57,-9.12 221.65,-3.16 174.25,14.03 307.3,35.88 402.07,56.11 -9,-12.28 -17.22,-25.14 -24.63,-38.45 -44.29,-79.3 -57.14,-126.39 -57.14,-126.39 0,0 54.88,93.41 207.49,170.96 33.98,17.3 68.45,33.59 103.4,48.86 l 75.65,13.88 c -2.54,-3.83 -5.37,-7.92 -8.48,-12.36 -24.93,-35.88 -37.27,-73.77 -37.27,-73.77 0,0 68.81,40.89 183.25,79.14 54.9,18.33 122.78,24.68 178.48,26.29 l 67.38,-6.6 c -6.76,-1.72 -13.88,-3.57 -21.62,-5.66 -82.66,-22.05 -107.46,-62.51 -107.46,-62.51 0,0 154.14,19.31 235.21,13.75 80.95,-5.5 145.1,-83.66 179.85,-124.74 50.15,-59.46 150.77,-82.15 150.77,-82.15 0,0 -30.98,33.95 -76.32,87.19 -10.49,12.16 -19.62,25.45 -27.23,39.61 57.84,-35.45 122.02,-74.83 146.65,-90.3 26.45,-16.53 59.19,-30.38 94,-43.82 34.64,-13.27 72.9,-26.71 112.07,-42.5 38.35,-15.42 54.42,-26.96 62.97,-36.81 4.22,-4.88 7.23,-9.92 10.13,-16.21 1.93,-4.17 3.73,-8.56 5.56,-13.11 -4.71,-0.93 -9.47,-1.65 -14.27,-2.11 -16.55,-1.49 -33.26,-7.89 -46.87,-14.42 -3.46,5.09 -7.11,10.38 -11.07,15.71 -4.36,5.98 -9.12,11.72 -14.19,17.14 -10.36,10.95 -23.47,21.28 -40.1,25.91 -13.9,3.62 -28.35,4.55 -42.58,2.75 -11.83,-1.34 -24.56,-5.09 -24.56,-5.09 0,0 94.83,-121.79 126.42,-138.47 14.62,-7.81 33.23,-15.14 57.73,-23.62 24.21,-8.41 54.93,-18.23 94.57,-31.23 158.21,-52 206.71,-71.67 253.24,-99.56 19.35,-11.64 35.64,-23.57 48.76,-38.91 -12.08,-2.85 -24.35,-4.81 -36.68,-5.89 -40.57,-3.08 -125.11,34.06 -187.44,30.85 -54.59,-2.68 -119.76,-6.76 -151.89,-64.73 -1,-1.79 -1.84,-3.62 -2.64,-5.42 l -0.13,0.29 c 0,0 -0.57,-1.39 -1.29,-3.73 -2.52,-6.27 -4.19,-12.86 -5.01,-19.57 -3.7,-21.23 -4.09,-52.43 18.94,-73.64 94.44,-87.03 165.43,-86.29 205.64,-113.89 21.2,-14.6 24.55,-39.05 22.95,-59 -22.7,1.09 -47.32,1.37 -74.34,0.65 -65.85,-1.7 -158.75,-17.38 -252.61,-35.09 -93.08,-17.53 -187.05,-37.06 -256.1,-46.45 -137.91,-18.79 -328.17,4.96 -460.13,-50.48 -69.17,-28.99 -147.39,-97.95 -197.95,-230.13 -58.63,-153.38 -43.16,-268.23 -2.65,-356.09 20.16,-43.69 46.35,-80.37 72.1,-111.58 25.45,-30.79 50.77,-56.49 69.69,-78.4 75,-87.23 181.93,-240.789 287.42,-393.269 108.65,-157.262 343.85,-194.563 505.76,-162.531 55.09,10.898 98.01,26.16 131.19,41.82"
         style="fill:#e5572c;fill-opacity:1;fill-rule:nonzero;stroke:none"
         id="path34" />
      <path
         d="m 2756.86,707.641 c -105.36,152.07 -212.19,305.259 -287.09,392.219 -18.85,21.88 -44.09,47.47 -69.56,78.25 -25.7,31.12 -51.87,67.65 -72,111.27 -40.48,87.6 -55.91,202.21 2.67,355.15 50.49,131.79 128.61,200.6 197.65,229.54 131.76,55.27 321.82,31.57 459.51,50.33 69.02,9.39 162.81,28.84 255.73,46.29 46.66,9.01 93.44,17.03 140.41,24.04 h -0.06 c 6.15,0.92 11.95,1.67 17.95,2.47 l 10.94,1.49 c 6.97,0.87 13.55,1.59 20.18,2.29 l 9.54,1.1 c 6.96,0.72 13.64,1.21 20.33,1.78 l 7.45,0.64 c 8.87,0.62 17.43,1.03 25.61,1.2 12.25,0.39 23.9,0.44 35.26,0.35 10.74,-0.11 21.49,-0.4 32.24,-0.81 l 6.76,-0.17 c 1.51,19.89 -1.8,44.31 -22.96,58.81 -40.12,27.58 -111.04,26.85 -205.35,113.63 -23.03,21.16 -22.7,52.31 -18.92,73.42 0.72,5.86 2.19,11.92 4.5,18.06 -10.13,10.05 -19.41,20.9 -27.79,32.42 -16.78,23.37 -33.39,46.86 -49.82,70.48 0,0 0.55,-68.06 27.61,-127.45 27.02,-59.26 83.57,-133.47 83.57,-133.47 0,0 -107.9,96.41 -155.1,149.93 11,-6.76 17.58,-11.31 17.58,-11.31 0,0 -67.24,111.79 -179.75,137.44 -18.3,4.58 -37.2,6.22 -56.01,4.91 -135.15,-4.58 -200.32,-89.68 -281.98,-126.98 -67.39,-30.69 -140.95,-55.31 -166.67,-63.62 -27.91,-6.48 -56.62,-8.84 -85.23,-7.06 -72.05,4.88 -74.85,10.3 -74.85,10.3 0,0 65.82,31.26 93.41,72.79 27.25,40.9 26.97,84.47 26.97,85.68 l 0.99,1.39 c 0,0 -87.69,-18.38 -136.43,-4.09 -48.76,14.26 -217.31,135.38 -350.46,134.28 -189.56,-1.69 -239.74,-160.06 -239.74,-160.06 0,0 1.34,1.95 3.83,5.14 l -2.14,-3.75 c 0,0 68.53,49.06 129.19,52.36 60.57,3.29 121.69,-9.95 121.69,-9.95 0,0 -178.54,-76.9 -279.48,-234.96 -100.99,-158.09 -116.6,-345.8 -116.6,-345.8 0,0 151.14,139.24 264.16,184.68 41.93,16.66 83.42,34.47 124.39,53.34 -47.22,-49.77 -86.63,-106.39 -116.88,-167.95 -128.16,-261.62 -128.5,-406.64 -128.5,-406.64 0,0 27.61,46.62 65.81,83.36 38.25,36.67 49.27,46.28 49.27,46.28 l 0.77,7.41 c 20.39,18.4 42.06,35.34 64.83,50.66 52.23,34.55 79.5,50.46 93.67,57.86 -8.54,-31.48 -15.29,-63.46 -20.23,-95.72 -32.24,-212.8 3.91,-491.62 154.2,-578.79 138.91,-80.37 245.73,-66.979 261.39,-64.51 2.06,-0.031 3.98,-0.129 5.9,-0.27 84.53,-101.55 122.85,-165.531 139.22,-197.429 29.18,-34.961 59.12,-80.911 85.65,-141.141 86.29,-195.66 112.07,-236.941 158.11,-257.891 12.49,-5.73 24.06,-9.148 34.51,-11.418 11.26,-2.519 21.34,-3.652 30.11,-4.691 5.25,-0.648 10.21,-1.238 14.65,-1.988 5.73,-0.871 10.95,-2.082 15.63,-3.543 11.38,-3.617 24.11,-10.617 32.44,-24.598 2.96,-5.07 5.32,-10 7.16,-14.832 3.04,1.43 80.67,65.75 80.67,65.75 0,0 12.6,-20.129 15.94,-35.469 3.87,-17.761 1.05,-21.75 1.79,-23.968 2.91,2.218 24.08,17.179 36.3,31.23 12.95,14.969 26.98,42.887 26.98,42.887 0,0 15.31,-24.891 19.01,-42.778 1.05,-6.472 1.75,-13.011 2.08,-19.531 l 7.97,4.16 c 26.99,14.852 58.47,37.039 81.2,67.34 20.92,28.07 38.4,58.539 52.13,90.75 10.41,24.442 11.12,24.328 11.12,24.328 0,0 54.06,15.692 75.86,41.231 7.29,8.57 12.03,19.64 15.29,31.57 -33.16,-15.578 -76.03,-30.867 -131.12,-41.769 -161.68,-31.95 -396.51,5.32 -505.06,162.121"
         style="fill:#ffffff;fill-opacity:1;fill-rule:nonzero;stroke:none"
         id="path36" />
      <path
         d="m 3864.03,2115.08 c -1.93,74.38 -27.23,139.62 -51.67,185.97 -8.19,15.55 -17.28,30.64 -27.12,45.19 -6.08,10 -23.56,31.28 -23.56,31.28 -32.86,35.57 -83.29,64.1 -172,99.53 -56.93,22.64 -114.2,44.46 -171.77,65.41 1.61,14.65 2.38,52.23 -19.55,113.74 -15.83,44.45 -61.61,76.53 -100.9,97.37 -26.87,14.22 -53.25,24.55 -71.77,30.92 4.05,11.7 9.2,27.61 10.51,37.71 2.31,17.41 7.73,70.38 -39.85,79.79 -31.69,6.3 -111.55,-4.68 -161.21,-12.7 -51.26,32.88 -133.04,83.82 -166.49,100.69 -87.21,43.28 -142.81,39.76 -156.56,37.91 -31.16,11.7 -62.67,22.41 -94.47,32.13 -54.8,16.76 -123.41,34.47 -176.51,36.7 -54.85,2.37 -109.79,1.03 -164.43,-3.96 l -19.51,-2 c -111.12,-11.77 -262.08,-44.95 -262.08,-44.95 0,0 -241.8,-59.87 -382.66,-76.63 -140.68,-16.76 -347.47,-15.14 -456.51,-9.28 -27.76,1.49 -51.87,2.88 -72.49,3.26 -20.82,0.44 -39.68,-0.2 -55.93,-3.21 -35.496,-6.63 -61.406,-30.1 -70.375,-67.88 -1.312,-5.27 0.457,-15.27 0.457,-15.27 15.891,-64.65 88.558,-183.32 143.638,-253.44 67.37,-85.88 134.8,-126.78 170.26,-143.87 -15.29,-17.59 -39.79,-45.37 -68.47,-76.86 -48.97,-53.54 -109.43,-116.85 -157.36,-157.95 -99.322,-85.16 -265.552,-269.23 -330.248,-505.07 -65.707,-239.46 -112.125,-373.43 -112.125,-373.43 0,0 85.469,-13.88 174.555,39.36 -11.719,-52.68 -23.004,-100.67 -31.484,-130.43 -41.953,-146.93 -129.063,-208.36 -129.063,-208.36 0,0 48.477,-41 153.688,-57.45 47.32,-7.4 81.453,-5.17 105.027,-0.29 -0.617,-64.74 -2.754,-131.01 -8.328,-166.201 -8.301,-51.071 -21.152,-101.321 -38.43,-150.11 0,0 66.91,13.11 119.449,30.121 51.929,16.871 115.309,42.848 154.949,78.711 22.18,-40.742 50.1,-85.562 83.92,-126.953 46.61,-57.09 99.58,-100.019 140.71,-128.617 41.43,-28.852 88.06,-51.492 88.06,-51.492 0,0 2.96,21.613 4.81,28.152 2,6.988 5.53,17.09 11.49,29.527 12.03,25.243 34.44,60.762 75.67,100.274 18.97,18.199 44.21,33.109 73.16,44.898 24.39,-51.121 60.73,-116.922 108.8,-175.711 46.58,-57.121 99.5,-99.937 140.68,-128.539 41.38,-28.82 88.04,-51.59 88.04,-51.59 0,0 2.95,21.711 4.86,28.25 1.98,6.93 5.5,17.09 11.41,29.481 12.11,25.238 34.52,60.789 75.73,100.289 72.97,69.969 233.55,92.621 370.24,67.891 l 188.46,-59.09 c 10.77,-31.262 21.52,-64.801 44.89,-121.36 53.48,-129.281 208.17,-144.351 223.65,-146.511 l -2.52,-90.27 105.64,27.969 -7.94,-47.707 c 0,0 130.35,45.988 181.29,57.187 106.83,23.391 179.19,99.039 223.84,164.731 24.75,36.621 45.28,75.832 61.25,117.051 10.23,6.597 27.91,18.629 49.74,36.328 42.64,34.761 61.25,95.711 59.97,146.09 -0.74,28.351 -10.46,53.261 -19.12,70.191 -5.02,9.309 -10.73,18.25 -17,26.789 -2.7,3.52 -5.4,7.07 -8.17,10.59 0.21,1.902 0.49,3.699 0.57,5.73 3.1,48.25 5.47,106.371 1.2,138.211 -7.35,54.649 -30.18,115.82 -86.47,106.24 -25.81,-4.37 -40.85,-32.439 -51.59,-62.88 -32.71,84.88 -82.27,230.91 -90.45,355.99 -9.97,153.35 111.68,338.21 155.95,399.93 3.09,-0.21 6.11,-0.46 9.4,-0.38 20.88,0.79 41.19,7.01 58.92,18.09 8.97,-4.32 22.21,-9.54 36.73,-11.13 20.28,-2.31 36.83,2.96 49.67,10.21 l 1.48,-4.43 c 6.07,-19.59 12.93,-50.19 14.86,-92.71 1.63,-34.07 0.54,-67.4 2.95,-93.31 2.24,-23.41 8.16,-56.96 38.67,-65.6 43.51,-12.52 117.62,102.38 148.7,222.31 13.49,52.19 22.25,102.03 27.91,144.23 14.04,27.28 28.71,57.36 37.94,80.48 22.15,55.61 44.34,130.48 42.39,204.66 z m -141.12,-88.32 c 4.75,7.89 9.2,15.29 12.64,22.44 3.37,6.93 6.71,15.26 10,25.55 5.4,3.73 11.04,7.15 16.84,10.17 6.4,3.58 13.16,7.46 19.82,11.67 -1.52,-56.29 -13.46,-100.24 -26.53,-131.68 -20.2,11.52 -41.79,20.43 -64.26,26.48 12.32,10.58 23.65,22.52 31.49,35.37 M 3384.28,589.27 c -2.67,-11.571 -7.87,-22.352 -15.19,-31.641 -21.85,-25.66 -75.93,-41.309 -75.93,-41.309 0,0 -0.74,0.051 -11.18,-24.398 -13.7,-32.313 -31.15,-62.871 -52.08,-91.012 -22.75,-30.359 -54.31,-52.57 -81.3,-67.48 l -8,-4.192 c 0,0 -0.59,12.032 -2.13,19.59 -3.6,17.91 -18.97,42.871 -18.97,42.871 0,0 -13.99,-28.019 -26.97,-42.98 -12.23,-14.11 -33.38,-29.071 -36.34,-31.328 -0.72,2.257 2.09,6.218 -1.8,24.039 -3.31,15.371 -15.91,35.511 -15.91,35.511 0,0 -77.67,-64.351 -80.76,-65.851 -1.95,5.14 -4.35,10.101 -7.12,14.84 -7.35,11.968 -18.92,20.761 -32.47,24.621 -5.14,1.617 -10.38,2.828 -15.7,3.597 -4.45,0.743 -9.33,1.364 -14.63,2 -8.79,1.012 -18.84,2.161 -30.1,4.633 -11.9,2.571 -23.47,6.43 -34.54,11.52 -46.11,20.988 -71.92,62.379 -158.16,258.527 -88.32,200.774 -214.87,244.031 -221.91,246.192 l -74.82,24.019 c 0,0 57.37,-106.961 98.57,-179.969 -210.96,56.399 -584.72,168.66 -762.88,297.49 -169.29,122.45 -270.64,337.54 -270.64,337.54 0,0 -35.93,-128.03 41.03,-284.49 43.54,-88.348 114.28,-158.29 157.85,-195.969 -47.38,-5.27 -96.22,-14.731 -141.84,-30.903 -84.26,-29.707 -125.26,-68.316 -142.07,-86.136 -4.37,3.578 -8.53,7.41 -12.49,11.468 -14.86,15.192 -35.88,41.258 -59.04,84.41 -19.57,37 -34.55,76.27 -44.68,116.879 -7.87,31.411 -12.13,71.541 -12.13,71.541 l -128.14,-66.029 c 1.67,15.047 4.32,34.819 8.36,58.369 12.52,72.64 32.26,143.84 58.89,212.54 64.59,165.41 104.51,329.38 104.51,329.38 L 945.582,1259.04 c 6.063,25.83 11.82,54.6 17.555,85.47 13.445,73.03 26.992,159.27 43.853,245.12 25.6,130.7 93.54,224.55 155.35,285.78 30.9,30.64 113.62,115.54 113.62,115.54 0,0 -39.79,-6.51 -88.35,-20.15 -48.43,-13.57 -111.42,-35.32 -169.59,-67.84 -7.97,-4.52 -15.71,-9.36 -23.215,-14.57 4.187,11.42 9.125,24.11 14.965,37.66 24.08,55.49 63.13,124.27 123.04,179.82 118.45,109.63 359.58,345.7 385.11,370.71 14.54,6.94 85.74,40.05 167.07,61.31 91.35,23.85 227.36,31.49 227.36,31.49 l -21.16,28.06 c -3.24,4.27 -89.3,114.52 -348.6,120.53 -193.04,4.45 -286.89,47.4 -332.28,85.88 -13.88,11.82 -64.49,43.65 -103.15,67.42 32.26,-2.26 77.96,-7.3 130.24,-11.41 68.45,-5.37 147.49,-9.13 221.47,-3.21 174.12,14.03 307.04,35.88 401.81,56.13 -8.97,-12.31 -17.17,-25.13 -24.57,-38.45 -44.26,-79.27 -57.12,-126.41 -57.12,-126.41 0,0 54.83,93.41 207.36,170.96 39.3,19.92 73.69,35.98 103.3,48.86 l 75.6,13.88 c -2.54,-3.83 -5.37,-7.91 -8.45,-12.36 -24.94,-35.84 -37.25,-73.72 -37.25,-73.72 0,0 68.76,40.89 183.09,79.09 54.88,18.32 122.72,24.68 178.42,26.29 l 67.31,-6.6 c -6.72,-1.72 -13.9,-3.57 -21.64,-5.66 -82.56,-22.05 -107.44,-62.51 -107.44,-62.51 0,0 154.09,19.36 235.06,13.81 80.98,-5.56 145.11,-83.68 179.78,-124.75 50.15,-59.45 150.68,-82.15 150.68,-82.15 0,0 -30.92,33.93 -76.27,87.17 -10.51,12.15 -19.63,25.44 -27.22,39.63 57.79,-35.45 121.97,-74.85 146.55,-90.32 26.44,-16.56 59.17,-30.36 93.94,-43.81 34.65,-13.28 72.85,-26.7 112.05,-42.49 38.27,-15.37 54.34,-26.96 62.89,-36.78 4.17,-4.86 7.18,-9.95 10.11,-16.19 1.92,-4.17 3.7,-8.61 5.55,-13.16 -4.73,-0.93 -9.48,-1.62 -14.26,-2.09 -16.53,-1.46 -33.21,-7.86 -46.76,-14.44 -3.54,5.09 -7.12,10.41 -11.13,15.7 -4.37,6 -9.12,11.73 -14.19,17.15 -10.41,10.95 -23.44,21.28 -40.07,25.96 -13.89,3.6 -28.33,4.53 -42.55,2.68 -11.81,-1.29 -24.54,-5.07 -24.54,-5.07 0,0 94.77,-121.76 126.31,-138.47 14.63,-7.76 33.26,-15.09 57.71,-23.62 24.21,-8.43 54.93,-18.25 94.51,-31.23 158.11,-51.98 206.56,-71.61 253.03,-99.53 19.36,-11.62 35.66,-23.57 48.71,-38.89 -12.03,-2.85 -24.23,-4.78 -36.58,-5.84 -40.6,-3.15 -125.05,33.99 -187.32,30.8 -54.55,-2.7 -119.66,-6.76 -151.79,-64.7 -1.02,-1.83 -1.87,-3.64 -2.64,-5.45 l -0.11,0.28 c 0,0 -0.59,-1.4 -1.31,-3.67 -2.55,-6.27 -4.24,-12.88 -5.04,-19.59 -3.67,-21.2 -4.06,-52.46 18.95,-73.66 94.35,-86.96 165.35,-86.27 205.5,-113.9 21.16,-14.55 24.5,-38.99 22.95,-58.94 -22.69,1.05 -47.31,1.36 -74.28,0.67 -65.83,-1.7 -158.65,-17.4 -252.47,-35.09 -92.99,-17.56 -186.89,-37.07 -255.93,-46.45 -137.81,-18.79 -327.94,4.89 -459.81,-50.48 -69.14,-29.02 -147.25,-97.96 -197.82,-230.13 -58.58,-153.28 -43.13,-268.15 -2.67,-356.03 20.18,-43.72 46.34,-80.33 72.07,-111.49 25.5,-30.87 50.72,-56.52 69.61,-78.44 74.95,-87.22 181.86,-240.81 287.22,-393.228 108.65,-157.203 343.64,-194.531 505.48,-162.531 55.01,10.929 97.88,26.187 131.09,41.879 m -127.01,267.628 8.05,-29.128 c -1.39,-0.09 -2.73,-0.04 -4.27,-0.25 -10.56,-1.489 -20.76,-4.911 -30.1,-10.079 -10.97,3.321 -22.41,4.879 -33.87,4.629 -16.46,-0.359 -32.73,-3.449 -48.18,-9.07 -13.1,5.648 -27.11,8.941 -41.4,9.719 -10.65,0.562 -9.15,0.5 -17.28,-1.778 -1.92,13.899 -13.13,38.821 -19.28,64.129 -18.94,78.168 -43.36,148.4 -75.15,146.87 -22.7,-1.05 -40.08,-24.19 -52.8,-43.049 -14.67,-21.692 -32,-52.461 -53.39,-89.551 -13.82,-23.879 -30.28,-41.668 -45.73,-54.781 -3.54,5.972 -6.88,12.031 -10.02,18.203 -39.68,79.84 -31.75,201.698 -101.87,288.348 -54.15,66.96 -188.08,70.12 -245.86,68.09 -14.65,18.1 -27.89,35.58 -39.69,52.62 45.83,27.79 151.87,85.67 243.55,88.06 120.76,3.17 186.84,-22.59 237.33,-82.56 33.31,-40.23 62.51,-83.77 87.11,-129.89 0,0 -5.86,88.04 -60.79,163.98 -5.81,7.94 -12,15.57 -18.51,22.93 21.21,9.53 44.96,12 67.68,6.99 47.4,-10.77 116.7,-62.98 154.74,-189.5 38.1,-126.49 27.53,-193.58 65.91,-247.939 14.9,-21.063 25.91,-36.243 33.82,-46.993"
         style="fill:#151415;fill-opacity:1;fill-rule:nonzero;stroke:none"
         id="path38" />
      <path
         d="m 2901.69,688.391 c 132.46,-74.68 254.22,-80.02 355.06,-56.192 48.29,11.43 95,28.91 138.93,52.071 1.7,0.878 3.29,1.8 4.88,2.718 1.42,16.461 2.96,36.543 4.22,57.641 2.88,46.16 4.16,92.762 0.98,116.101 -3.7,27.411 -10.03,43.981 -15.74,52.418 -4.75,-8.789 -10.17,-22.828 -16.37,-43.339 -6.92,-23.161 -19.66,-52.829 -30.72,-76.731 -12.74,-26.316 -25.83,-52.508 -39.27,-78.476 0,0 -9.59,11.207 -17.97,14.796 -19,8.77 -41.53,2.301 -52.92,-15.257 -11.13,11.277 -20.74,15.73 -38.02,15.468 -27.56,-0.379 -42.85,-23.031 -42.85,-23.031 0,0 -13.55,23.141 -52.3,22.652 -31.72,-0.39 -67.53,-35.191 -67.53,-35.191 0,0 -1.01,56.531 -13.42,140.5 -8.51,57.742 -21.56,76.473 -27.91,94.832 -1.98,-2.601 -3.89,-5.203 -5.72,-7.891 -14.23,-20.492 -30.96,-49.718 -51.71,-84.91 -23.27,-39.531 -56.47,-72.332 -96.31,-95.082 19.68,-21.617 40.3,-39.347 64.69,-53.097 m 788.43,1192.059 c -48.63,12.88 -114.79,25.94 -185.3,27.14 -70.48,1.16 -162.63,-14.6 -254.68,-32.9 -92.3,-18.32 -183.38,-38.92 -250.25,-46.78 -81.47,-9.64 -225.48,-13.21 -325.96,-14.6 18.27,-28.91 46.98,-55.65 91.02,-54.62 31.02,0.71 47.68,25.71 47.68,25.71 57.93,-73.29 85.95,-12.76 116.55,-22.96 8.33,-25.11 17.04,-54.06 22.08,-77.86 17.42,-82.66 15.73,-145.41 14.05,-216.15 34.72,34.06 73.16,88.58 102.66,154.59 29.82,66.59 46.92,180.9 46.92,180.9 0,0 46.35,-33.36 78.42,-28.22 25.93,4.17 56.88,35.68 56.88,35.68 0,0 27.45,-28.38 50.46,-31.36 26.3,-3.44 63.44,24.18 63.44,24.18 0,0 34.11,-25.92 59.17,-25.26 23.24,0.6 54.26,24.39 54.26,24.39 0,0 23.32,-24.14 46.4,-22.69 32.34,2 63.08,27.89 63.08,27.89 l 18.28,-28.08 c 3.39,-5.67 30.3,-53.33 34.85,-149.46 1.06,-23.37 1.06,-46.01 1.64,-66.4 20.38,30.51 44.91,77.79 61.88,142.58 16,61.49 25.01,117.99 30.1,161.38 -12.89,4.19 -27.79,8.79 -43.63,12.95 M 2551.86,2447 c 52.46,7.92 90.48,31.33 105.74,53.8 -23.34,14.85 -45.5,31.54 -66.18,49.92 -2.06,-4.96 -4.3,-9.85 -6.69,-14.63 -21.31,-41.59 -36.35,-54.29 -36.35,-54.29 0,0 2.38,53.26 -2.95,86.55 -0.43,2.62 -0.92,5.19 -1.44,7.79 -59.74,-6.3 -89.83,-10.65 -103.43,-12.96 -8.17,-13.31 -12.23,-27.81 -10.96,-42.46 2.79,-31.31 28.87,-56.5 66.45,-69.66 17.32,-4.63 36.5,-7.04 55.81,-4.06 m -380.68,219.44 -1.62,1.85 c 0,0 53.26,-14.27 164.48,13 111.12,27.33 228.56,59.74 228.56,59.74 l 109.5,-71.18 c 1.6,-1.02 3.19,-1.97 4.73,-3.05 l 174.04,-113.13 c 0,0 30.1,-12.6 49.69,-9.71 48.27,7.04 63.75,55.57 66.89,67.83 -8.08,-8.1 -55.58,-53.16 -93.54,-26.86 -118.73,82.1 -283.21,219.49 -283.21,219.49 -140.07,-6.12 -301.31,-90.3 -365.8,-82.72 -64.49,7.66 -170.55,43.26 -170.55,43.26 0,0 29.64,-60.61 116.83,-98.52 m 1594,-449.03 c 6.3,-45.21 -14.44,-58 -32.28,-65.16 -28.97,-11.57 -33.68,-24.35 -35.81,-53.52 -1.6,-22.6 -61.21,-93.25 -61.21,-93.25 0,0 34.73,84.23 36.15,103.71 2.11,29.18 7.94,39.92 35.78,53.57 50.02,24.47 50.38,50.02 57.42,54.65 m -0.18,73.77 1.28,-2.21 c 0,0 -40.02,-42.72 -72.38,-45.11 -40.79,-3.04 -119.88,25.75 -169.49,28.61 -49.66,2.87 -135.65,-11.16 -133.56,-55.06 -9.13,6.37 -15.37,15.71 -15.84,26.16 -2.03,43.8 83.9,57.9 133.54,55.01 49.64,-2.88 128.73,-31.56 169.47,-28.58 38.68,2.8 83.36,17.32 87.88,18.87 l -0.9,2.31 m -549.18,334.31 c 5.51,-5.37 10.65,-11.26 15.4,-17.27 4.32,-5.32 8.26,-10.65 12.11,-15.79 14.76,6.58 32.86,13.06 50.92,14.55 5.61,0.47 10.7,1.24 15.53,2.14 -2.06,4.57 -3.98,9.02 -6.02,13.18 -2.85,5.97 -6.55,11.49 -11.02,16.35 -5.32,5.6 -13.45,11.85 -26.87,18.97 l -53.95,-28.61 c 1.26,-1.15 2.64,-2.31 3.86,-3.47"
         style="fill:#ffffff;fill-opacity:1;fill-rule:nonzero;stroke:none"
         id="path40" />
      <path
         d="m 2904.11,691.172 c 15.83,-8.481 31.48,-15.934 46.98,-22.692 -6.48,18.598 -9.09,43.2 1.85,72.481 11.03,29.098 44.6,135.328 44.6,135.328 0,0 4.32,17.609 13.31,10.063 1.96,-1.684 3.74,-4.551 5.48,-7.75 -7.4,25.5 -15.29,38.207 -19.79,50.777 -1.88,-2.188 -3.73,-4.84 -5.91,-7.801 -14.8,-20.277 -32.14,-49.168 -53.7,-83.969 -24.57,-39.48 -59.01,-71.871 -99.91,-93.98 20.41,-21.309 41.79,-38.91 67.12,-52.457 m 503.43,167.59 c -3.72,28.359 -9.97,45.547 -15.62,54.289 -4.76,-9.121 -10.18,-23.653 -16.27,-44.903 -6.96,-23.988 -19.61,-54.777 -30.59,-79.507 -10.64,-23.852 -39.1,-81.403 -39.1,-81.403 0,0 -9.53,11.563 -17.91,15.371 -19,9.02 -41.75,2.161 -52.57,-15.89 -11.13,11.75 -20.72,16.301 -37.89,16.062 -27.37,-0.351 -42.59,-23.82 -42.59,-23.82 0,0 -13.49,24.008 -52.1,23.41 -31.33,-0.383 -66.67,-35.98 -67.04,-36.391 -1.18,-21.441 -3.26,-33.832 -3.26,-33.832 0,0 45.49,36.68 76.96,37.172 38.58,0.539 52.09,-23.468 52.09,-23.468 0,0 15.28,23.468 42.62,23.828 17.23,0.281 26.95,-4.43 37.89,-16.071 10.9,18 33.63,24.84 52.62,15.832 8.33,-3.703 30.57,-25.011 30.57,-25.011 0,0 28.76,67.968 37.6,92.539 10.51,29.39 17.96,53.39 25.09,77.332 8.22,27.75 5.86,36.469 10.56,45.621 3.01,-4.66 6.17,-11.602 9.02,-21.313 l -0.02,0.153"
         style="fill:#ffffff;fill-opacity:1;fill-rule:nonzero;stroke:none"
         id="path42" />
      <path
         d="m 3676.59,1638.47 0.1,0.17 v 0.11 z"
         style="fill:#b2b6b3;fill-opacity:1;fill-rule:nonzero;stroke:none"
         id="path44" />
      <path
         d="m 2690.26,1805.07 c 18.53,-26.63 47.68,-51.25 92.49,-50.27 18.79,0.48 36.47,9.09 48.45,23.61 30.15,-34.57 52.36,-36.73 70.99,-31.9 -20.28,24.89 -22.82,45.94 -15.37,63.34 -66.68,-2.7 -138.73,-4.09 -196.56,-4.78 m 269.18,-120.94 c 16.65,-82.9 15.01,-145.87 13.42,-216.72 19.53,20.11 40.3,47.51 59.75,80.07 -6.47,-7.86 -21.51,-24.95 -28.63,-19.86 -9.17,6.58 11.62,45.42 4.63,129.77 -4.84,57.89 -18.87,129.53 -27.14,168.73 -18.97,-1.82 -40.33,-3.39 -62.98,-4.75 0.46,-1.24 29.97,-82.75 40.95,-137.24 m 693.08,-65.52 c -6.39,14.65 17.49,76.31 0.83,162.5 -16.68,86.19 -32.59,77.35 -32.59,77.35 l -0.36,-0.19 -35.47,-11.87 c 0,0 -30.33,-25.73 -62.1,-27.76 -22.83,-1.38 -45.69,22.59 -45.69,22.59 0,0 -30.53,-23.62 -53.43,-24.21 -24.81,-0.72 -58.23,25.09 -58.23,25.09 0,0 -36.57,-27.4 -62.51,-24.06 -22.85,2.91 -49.7,31.21 -49.7,31.21 0,0 -30.32,-31.37 -55.91,-35.48 -31.8,-5.09 -77.25,28.12 -77.25,28.12 0,0 -2.03,-15.06 -5.93,-38.47 0.28,-0.27 45.73,-33.21 77.18,-28.08 25.51,4.17 55.99,35.48 55.99,35.48 0,0 27.04,-28.25 49.66,-31.21 25.93,-3.45 62.54,24.06 62.54,24.06 0,0 33.52,-25.81 58.25,-25.13 22.82,0.58 53.44,24.25 53.44,24.25 0,0 22.85,-24.03 45.59,-22.58 26.17,1.67 51.01,19.09 62.16,27.75 l 17.99,-27.96 c 0.28,-0.55 8.12,-15.92 12.62,-28.41 8.69,-24.16 18.97,-63.75 21.65,-120.27 1.02,-23.28 1.02,-45.83 1.64,-66.06 13.88,21.26 25.81,43.72 35.65,67.11 -4.96,-10.63 -12.08,-22.85 -16.06,-13.77"
         style="fill:#ffffff;fill-opacity:1;fill-rule:nonzero;stroke:none"
         id="path46" />
      <path
         d="m 2193.18,2038.07 c 0,0 -139.98,-178.19 -176.97,-426.59 -31.9,-214.05 3.83,-494.56 152.53,-582.23 148.73,-87.609 260.64,-64.52 260.64,-64.52 0,0 -153.58,9.872 -272.77,208.74 -203.43,339.56 36.57,864.6 36.57,864.6 M 1760.89,1451.1 c 0,0 28.09,46.92 67.01,83.82 38.92,36.9 50.12,46.58 50.12,46.58 0,0 11.78,128.39 70.17,277.38 53.34,135.97 171.42,260.69 171.42,260.69 0,0 -139.23,-80.94 -227.89,-259.59 -130.47,-263.1 -130.83,-408.88 -130.83,-408.88 m 0,882.03 c 0,0 69.5,102.07 208.36,103.27 138.88,1.18 241.16,-68.16 241.16,-68.16 0,0 -62.93,-4.68 -124.8,-41.08 -64.85,-38.07 -92.28,-93.46 -92.28,-93.46 0,0 75.24,84.33 236.76,91.22 88.25,3.73 116.67,-16.8 170.74,-10.41 67.8,8.05 93.74,48.77 93.74,48.77 0,0 -88.53,-18.62 -137.78,-4.17 -49.22,14.45 -219.41,136.7 -353.77,135.49 -191.44,-1.67 -242.13,-161.47 -242.13,-161.47 M 3244.57,2020.3 c 0,0 -88.83,51.13 -176.41,50.38 -87.63,-0.72 -202.37,-57.19 -310.49,-66.96 -76.39,-6.94 -181.54,7.4 -181.54,7.4 0,0 95.18,-39.24 222.96,-38.24 127.77,1.08 186.76,34.95 290.92,41 104.16,6.01 154.56,6.47 154.56,6.47 m 16.37,54.45 c 0,0 -103.33,176.51 -244.37,175.22 -141.07,-1.31 -206.79,-61.44 -290.69,-100.15 -167.49,-77.34 -312.8,-47.75 -312.8,-47.75 0,0 149.58,-67.04 337.83,-5.29 98.27,32.28 165.1,82.27 266.25,83.25 101.1,0.95 243.78,-105.28 243.78,-105.28"
         style="fill:#151415;fill-opacity:1;fill-rule:nonzero;stroke:none"
         id="path48" />
      <path
         d="m 3211.98,2236.54 c 0,0 -87.37,145.15 -229.75,143.92 -142.42,-1.26 -209.07,-90.01 -293.28,-128.39 -84.21,-38.33 -178.06,-67.26 -178.06,-67.26 0,0 150.37,6.85 244.17,51.78 93.64,44.91 125.51,85.34 227.66,86.22 102.21,0.87 229.26,-86.27 229.26,-86.27"
         style="fill:#151415;fill-opacity:1;fill-rule:nonzero;stroke:none"
         id="path50" />
      <path
         d="m 3718.74,2017.83 c 5.08,7.89 9.92,15.17 13.6,22.24 3.62,6.91 7.25,15.14 10.79,25.29 4.17,2.85 10.11,6.02 18.14,10.07 6.87,3.53 14.15,7.41 21.37,11.57 -1.62,-55.78 -14.55,-99.26 -28.61,-130.42 -21.95,11.46 -45.19,20.28 -69.22,26.21 13.26,10.52 25.5,22.32 33.88,35.04 M 3232.06,398.57 c 17.53,23.102 32.66,47.918 45.15,74.102 -47.78,-23.961 -140.29,-62.781 -231.18,-58.32 -130.29,6.5 -214.5,56.179 -366.18,248.378 -61.13,77.508 -112.77,124.27 -152.67,152.52 42.6,-36.289 93.52,-95.391 135.68,-189.52 86.95,-193.781 112.92,-234.671 159.36,-255.421 12.6,-5.68 24.21,-9.098 34.83,-11.329 11.33,-2.48 21.46,-3.628 30.33,-4.628 5.27,-0.653 10.23,-1.262 14.75,-2.012 5.86,-0.82 11.14,-2.078 15.77,-3.52 11.59,-3.55 24.31,-10.511 32.74,-24.34 2.98,-4.992 5.37,-9.921 7.2,-14.671 3.08,1.41 81.35,65.101 81.35,65.101 0,0 12.73,-19.922 16.07,-35.101 3.88,-17.618 1.05,-21.528 1.8,-23.758 2.95,2.23 24.23,16.988 36.63,30.969 13.02,14.789 27.19,42.46 27.19,42.46 0,0 15.45,-24.691 19.08,-42.351 1.07,-6.457 1.82,-12.93 2.13,-19.457 l 8.07,4.219 c 27.22,14.668 58.99,36.679 81.9,66.679"
         style="fill:#ffffff;fill-opacity:1;fill-rule:nonzero;stroke:none"
         id="path52" />
      <path
         d="m 3252.87,842.078 8.04,-28.598 c -1.43,-0.109 -2.77,-0.062 -4.26,-0.269 -10.49,-1.481 -20.64,-4.82 -29.97,-9.891 -10.92,3.258 -22.37,4.809 -33.77,4.52 -16.38,-0.36 -32.55,-3.34 -47.92,-8.879 -13.08,5.57 -27.05,8.801 -41.23,9.527 -10.62,0.512 -9.13,0.492 -17.2,-1.699 -1.93,13.602 -13.08,38.09 -19.2,63.012 -18.84,76.867 -43.16,145.859 -74.78,144.479 -22.58,-1.09 -39.91,-23.862 -52.61,-42.409 -14.57,-21.281 -31.85,-51.543 -53.13,-87.992 -13.75,-23.52 -30.1,-41.027 -45.55,-53.957 -3.49,5.887 -6.81,11.859 -9.92,17.949 -39.56,78.527 -31.64,198.359 -101.43,283.569 -53.93,65.83 -187.26,68.94 -244.76,66.93 -14.6,17.81 -27.78,34.99 -39.5,51.75 45.59,27.32 151.14,84.26 242.44,86.57 120.27,3.15 186.03,-22.16 236.27,-81.12 33.16,-39.54 62.21,-82.37 86.73,-127.81 0,0 -5.86,86.6 -60.48,161.35 -5.84,7.77 -12.03,15.27 -18.54,22.49 14.97,6.51 39.13,13.23 67.48,6.89 47.11,-10.65 116.13,-61.9 154.02,-186.33 37.94,-124.42 27.4,-190.39 65.59,-243.832 14.84,-20.75 25.74,-35.648 33.68,-46.25"
         style="fill:#e5572c;fill-opacity:1;fill-rule:nonzero;stroke:none"
         id="path54" />
      <path
         d="m 1211.14,2790.34 c 45.01,-35.88 138.22,-76.03 329.84,-80.19 22.47,-0.47 43.52,-1.75 63.39,-3.58 l 123.92,120.12 c 0,0 -225.6,-41.15 -406.41,-23.65 -71.64,6.78 -141.99,23.6 -208.95,49.97 l -4.19,0.31 c 38.37,-22.24 88.55,-51.9 102.4,-62.98"
         style="fill:#ffffff;fill-opacity:1;fill-rule:nonzero;stroke:none"
         id="path56" />
      <path
         d="m 1339.14,2771.03 c -92.67,19.69 -165.18,53.67 -214.12,82.28 32.65,-21.05 65.81,-43.16 76.73,-52.69 46.04,-40.31 141.32,-85.32 337.24,-90.07 23.01,-0.47 44.6,-1.93 64.96,-3.96 l 91.68,97.78 c -70.38,-22.55 -222.44,-61.77 -356.54,-33.34"
         style="fill:#ffffff;fill-opacity:1;fill-rule:nonzero;stroke:none"
         id="path58" />
      <path
         d="m 2959.75,2613.64 c 0,0 -12.1,-62.18 -66.93,-70.2 -19.41,-2.83 -49.27,9.69 -49.27,9.69 l -172.58,112.38 c -1.41,0.97 -2.8,1.85 -4.17,2.72 l -108.83,70.95 c 0,0 -116.46,-32.18 -226.61,-59.28 -110.22,-27.14 -162.97,-12.95 -162.97,-12.95 0,0 21.31,-30.26 114.85,-48.25 6.71,-1.31 13.65,-2.39 20.85,-3.34 -9.41,-2.31 -18.66,-4.73 -28.43,-6.86 -117.06,-25.56 -237.56,14.96 -237.56,14.96 0,0 45.75,-36.12 113.41,-59.17 67.68,-23.11 133.02,-16.25 133.02,-16.25 0,0 1.49,-22.57 -50.79,-42.03 -52.24,-19.43 -74.42,-12.03 -74.42,-12.03 0,0 28.77,-30.82 108.68,-20.35 20.15,2.98 39.74,8.91 58.17,17.58 19.92,-62.51 114.98,-103.15 224.42,-92.85 73.62,6.97 136.45,35.42 171.94,73.13 24.09,-9.48 49.84,-17.27 77.14,-21.85 152.68,-25.57 179.91,42.93 183.42,75.6 5.12,47.55 -23.39,88.4 -23.39,88.4 z m -533.9,-93.39 c -1.36,13.89 2.88,27.53 11.25,40.18 14.1,2.13 44.84,6.25 106.29,12.18 0.55,-2.44 1.11,-5.01 1.47,-7.3 5.56,-31.49 3.08,-81.81 3.08,-81.81 0,0 15.45,12.03 37.3,51.28 2.44,4.42 4.63,9.17 6.71,13.85 19.35,-15.65 42.13,-32.08 68.27,-47.19 -15.73,-21.21 -54.78,-43.39 -108.7,-50.87 -19.89,-2.8 -39.58,-0.56 -57.4,3.88 -38.58,12.49 -65.39,36.24 -68.27,65.75 v 0.05"
         style="fill:#151415;fill-opacity:1;fill-rule:nonzero;stroke:none"
         id="path60" />
    </g>
  </g>
</svg>
